<mxfile host="app.diagrams.net" agent="Mozilla/5.0 (Macintosh; Intel Mac OS X 10.15; rv:131.0) Gecko/20100101 Firefox/131.0" version="24.8.3">
  <diagram name="Page-1" id="XotjsyXjrzwOzkSzAZyD">
    <mxGraphModel dx="2607" dy="1035" grid="1" gridSize="10" guides="1" tooltips="1" connect="1" arrows="1" fold="1" page="1" pageScale="1" pageWidth="827" pageHeight="1169" math="0" shadow="0">
      <root>
        <mxCell id="0" />
        <mxCell id="1" parent="0" />
        <mxCell id="rnsb18FZArYNo0Qjp4gU-5" value="" style="rounded=0;whiteSpace=wrap;html=1;fontFamily=IBM Plex Sans;fontSource=fonts%2FIBMPlexSans-Regular.woff;fontSize=14;spacingBottom=-28;spacingTop=0;labelPosition=-100;verticalLabelPosition=top;align=center;verticalAlign=bottom;spacingLeft=9;spacing=0;expand=0;recursiveResize=0;spacingRight=0;container=1;collapsible=0;strokeColor=#1192E8;fillColor=none;" parent="1" vertex="1">
          <mxGeometry x="440" y="480" width="240" height="280" as="geometry">
            <mxRectangle width="670" as="alternateBounds" />
          </mxGeometry>
        </mxCell>
        <mxCell id="rnsb18FZArYNo0Qjp4gU-6" value="" style="rounded=0;whiteSpace=wrap;html=1;strokeColor=#1192E8;fillColor=#1192E8;" parent="rnsb18FZArYNo0Qjp4gU-5" vertex="1">
          <mxGeometry width="4" height="48" as="geometry" />
        </mxCell>
        <mxCell id="rnsb18FZArYNo0Qjp4gU-7" value="ICD SRE" style="text;html=1;strokeColor=none;fillColor=none;align=left;verticalAlign=middle;whiteSpace=wrap;rounded=0;fontFamily=IBM Plex Sans;fontSource=fonts%2FIBMPlexSans-Regular.woff;fontSize=14;" parent="rnsb18FZArYNo0Qjp4gU-5" vertex="1">
          <mxGeometry x="51" y="8" width="163" height="20" as="geometry" />
        </mxCell>
        <mxCell id="rnsb18FZArYNo0Qjp4gU-8" value="" style="shape=image;image=data:image/svg+xml,PD94bWwgdmVyc2lvbj0iMS4wIiBlbmNvZGluZz0iVVRGLTgiPz4KPHN2ZyB3aWR0aD0iMzNweCIgaGVpZ2h0PSIyNnB4IiB2aWV3Qm94PSIwIDAgMzMgMjYiIHZlcnNpb249IjEuMSIgeG1sbnM9Imh0dHA6Ly93d3cudzMub3JnLzIwMDAvc3ZnIiB4bWxuczp4bGluaz0iaHR0cDovL3d3dy53My5vcmcvMTk5OS94bGluayI+CiAgICA8IS0tIEdlbmVyYXRvcjogU2tldGNoIDUzICg3MjUyMCkgLSBodHRwczovL3NrZXRjaGFwcC5jb20gLS0+CiAgICA8dGl0bGU+Q2xvdWQgU2VydmljZXMgQmxhY2s8L3RpdGxlPgogICAgPGRlc2M+Q3JlYXRlZCB3aXRoIFNrZXRjaC48L2Rlc2M+CiAgICA8ZyBpZD0iUGFnZS0xIiBzdHJva2U9Im5vbmUiIHN0cm9rZS13aWR0aD0iMSIgZmlsbD0ibm9uZSIgZmlsbC1ydWxlPSJldmVub2RkIj4KICAgICAgICA8ZyBpZD0iQ2xvdWQtU2VydmljZXMtQmxhY2siIHRyYW5zZm9ybT0idHJhbnNsYXRlKDAuMDYyNTAwLCAtMS4wMDAwMDApIiBmaWxsPSIjMDAwMDAwIj4KICAgICAgICAgICAgPGcgaWQ9Ikdyb3VwLTMiIHRyYW5zZm9ybT0idHJhbnNsYXRlKDAuMDAwMDAwLCAwLjAwMjAwMCkiPgogICAgICAgICAgICAgICAgPHBhdGggZD0iTTI1LjgyMzEsOS4xMjQgQzI0Ljc4NzEsMy43IDE5LjU1MTEsMC4xNDIgMTQuMTI2MSwxLjE3NyBDMTAuMDk4MSwxLjk0NiA2Ljk0ODEsNS4wOTYgNi4xNzkxLDkuMTI0IEMwLjA5MjEsMTAuMjExIC0yLjk1NzksMTguMzYzIDMuOTY0MSwyMy42MzIgQzQuMjg1MSwyMy44NzcgNC42ODkxLDI0IDUuMDkzMSwyNCBMOC4wMDExLDI0IEw4LjAwMTEsMjIgTDUuNDQ4MSwyMiBDNS4xMDQxLDIyIDQuNzYyMSwyMS44NzcgNC41MTExLDIxLjY0MiBDLTAuMzUzOSwxNy4wODYgMi41ODYxLDExLjMzIDcuMTI0MSwxMS4wMiBMNy45NjExLDEwLjk2MyBMOC4zNTYxLDcuMjk4IEM4LjQwNzEsNi44MzIgOC42MTMxLDYuMzg2IDguOTU3MSw2LjA2NyBDMTUuNjAxMSwtMC4wOTQgMjMuMjc2MSwzLjkzNyAyMy45NTIxLDEwLjEzIEwyNC4wNDIxLDEwLjk2MyBMMjYuOTI2MSwxMS4xNiBDMjcuMjY5MSwxMS4xODQgMjcuNjAxMSwxMS4zMyAyNy44MzUxLDExLjU4MiBDMzIuMzc5MSwxNi40NiAyOS4wNTAxLDIyLjAwMyAyNC41MDExLDIyIEwyNC4wMDExLDIyIEwyNC4wMDExLDI0IEwyNy4yMTUxLDI0IEMyNy42NjExLDI0IDI4LjEwMzEsMjMuODQ4IDI4LjQzNzEsMjMuNTUyIEMzNC45MTQxLDE3LjgxNiAzMS42NjgxLDEwLjE2OCAyNS44MjMxLDkuMTI0IiBpZD0iRmlsbC0xIj48L3BhdGg+CiAgICAgICAgICAgIDwvZz4KICAgICAgICAgICAgPHBhdGggZD0iTTE1LjU3NCwyMi44MjU3IEMxMy45MTcsMjIuODI1NyAxMi41NzQsMjEuNDgyNyAxMi41NzQsMTkuODI1NyBDMTIuNTc0LDE4LjE2ODcgMTMuOTE3LDE2LjgyNTcgMTUuNTc0LDE2LjgyNTcgQzE3LjIzMSwxNi44MjU3IDE4LjU3NCwxOC4xNjg3IDE4LjU3NCwxOS44MjU3IEMxOC41NzIsMjEuNDgxNyAxNy4yMywyMi44MjM3IDE1LjU3NCwyMi44MjU3IEwxNS41NzQsMjIuODI1NyBaIE0yMy4wMDEsMjEuMDAxNyBMMjMuMDAxLDE5LjAwMTcgTDIwLjksMTkuMDAxNyBDMjAuNzcxLDE4LjM3NTcgMjAuNTIzLDE3Ljc4MDcgMjAuMTY4LDE3LjI0ODcgTDIxLjY1OCwxNS43NTk3IEwyMC4yNDQsMTQuMzQ1NyBMMTguNzU0LDE1LjgzNDcgQzE4LjIyMiwxNS40ODA3IDE3LjYyNywxNS4yMzE3IDE3LjAwMSwxNS4xMDI3IEwxNy4wMDEsMTMuMDAxNyBMMTUuMDAxLDEzLjAwMTcgTDE1LjAwMSwxNS4xMDI3IEMxNC4zNzUsMTUuMjMxNyAxMy43OCwxNS40ODA3IDEzLjI0OCwxNS44MzQ3IEwxMS43NTgsMTQuMzQ0NyBMMTAuMzQ1LDE1Ljc1ODcgTDExLjgzNCwxNy4yNDg3IEMxMS40OCwxNy43ODA3IDExLjIzMSwxOC4zNzU3IDExLjEwMiwxOS4wMDE3IEw5LjAwMSwxOS4wMDE3IEw5LjAwMSwyMS4wMDE3IEwxMS4xMDIsMjEuMDAxNyBDMTEuMjMxLDIxLjYyNzcgMTEuNDgsMjIuMjIyNyAxMS44MzQsMjIuNzU0NyBMMTAuMzQ0LDI0LjI0NDcgTDExLjc1OCwyNS42NTg3IEwxMy4yNDgsMjQuMTY4NyBDMTMuNzgsMjQuNTIzNyAxNC4zNzUsMjQuNzcxNyAxNS4wMDEsMjQuOTAwNyBMMTUuMDAxLDI3LjAwMTcgTDE3LjAwMSwyNy4wMDE3IEwxNy4wMDEsMjQuOTAwNyBDMTcuNjI3LDI0Ljc3MTcgMTguMjIyLDI0LjUyMzcgMTguNzU0LDI0LjE2ODcgTDIwLjI0NCwyNS42NTg3IEwyMS42NTgsMjQuMjQ0NyBMMjAuMTY4LDIyLjc1NDcgQzIwLjUyMywyMi4yMjI3IDIwLjc3MSwyMS42Mjc3IDIwLjksMjEuMDAxNyBMMjMuMDAxLDIxLjAwMTcgWiIgaWQ9IkZpbGwtNCI+PC9wYXRoPgogICAgICAgIDwvZz4KICAgIDwvZz4KPC9zdmc+;" parent="rnsb18FZArYNo0Qjp4gU-5" vertex="1">
          <mxGeometry x="14" y="9" width="24" height="24" as="geometry" />
        </mxCell>
        <mxCell id="rnsb18FZArYNo0Qjp4gU-25" value="Ticket Queue" style="shape=image;aspect=fixed;image=data:image/svg+xml,PD94bWwgdmVyc2lvbj0iMS4wIiBlbmNvZGluZz0iVVRGLTgiPz4KPHN2ZyB3aWR0aD0iNDlweCIgaGVpZ2h0PSI0OXB4IiB2aWV3Qm94PSIwIDAgNDkgNDkiIHZlcnNpb249IjEuMSIgeG1sbnM9Imh0dHA6Ly93d3cudzMub3JnLzIwMDAvc3ZnIiB4bWxuczp4bGluaz0iaHR0cDovL3d3dy53My5vcmcvMTk5OS94bGluayI+CiAgICA8dGl0bGU+YXJjaGl2ZTwvdGl0bGU+CiAgICA8ZyBpZD0iVjItSWNvbnMiIHN0cm9rZT0ibm9uZSIgc3Ryb2tlLXdpZHRoPSIxIiBmaWxsPSJub25lIiBmaWxsLXJ1bGU9ImV2ZW5vZGQiPgogICAgICAgIDxnIGlkPSJJQk0tLy1DbG91ZC0vLVN0b3JhZ2UiIHRyYW5zZm9ybT0idHJhbnNsYXRlKC01NiwgLTQ4KSI+CiAgICAgICAgICAgIDxnIGlkPSJhcmNoaXZlIiB0cmFuc2Zvcm09InRyYW5zbGF0ZSg1Ni41LCA0OC45MzYyKSI+CiAgICAgICAgICAgICAgICA8cG9seWdvbiBpZD0iRmlsbC00IiBmaWxsPSIjMEY2MkZFIiBwb2ludHM9IjAgNDggNDggNDggNDggMCAwIDAiPjwvcG9seWdvbj4KICAgICAgICAgICAgICAgIDxyZWN0IGlkPSJSZWN0YW5nbGUiIGZpbGw9IiNGRkZGRkYiIGZpbGwtcnVsZT0ibm9uemVybyIgeD0iMjIiIHk9IjI2LjMxMzc3NzMiIHdpZHRoPSIzIiBoZWlnaHQ9IjEuNSI+PC9yZWN0PgogICAgICAgICAgICAgICAgPHBhdGggZD0iTTE2LDEzLjU2Mzc3NzMgTDE2LDMzLjA2Mzc3NzMgQzE2LDMzLjg5MjIwNDUgMTYuNjcxNTcyOSwzNC41NjM3NzczIDE3LjUsMzQuNTYzNzc3MyBMMjkuNSwzNC41NjM3NzczIEMzMC4zMjg0MjcxLDM0LjU2Mzc3NzMgMzEsMzMuODkyMjA0NSAzMSwzMy4wNjM3NzczIEwzMSwxMy41NjM3NzczIEwxNiwxMy41NjM3NzczIFogTTI5LjUsMzMuMDYzNzc3MyBMMTcuNSwzMy4wNjM3NzczIEwxNy41LDI0LjA2Mzc3NzMgTDI5LjUsMjQuMDYzNzc3MyBMMjkuNSwzMy4wNjM3NzczIFogTTI5LjUsMjIuNTYzNzc3MyBMMTcuNSwyMi41NjM3NzczIEwxNy41LDE5LjU2Mzc3NzMgTDI5LjUsMTkuNTYzNzc3MyBMMjkuNSwyMi41NjM3NzczIFogTTE3LjUsMTguMDYzNzc3MyBMMTcuNSwxNS4wNjM3NzczIEwyOS41LDE1LjA2Mzc3NzMgTDI5LjUsMTguMDYzNzc3MyBMMTcuNSwxOC4wNjM3NzczIFoiIGlkPSJTaGFwZSIgZmlsbD0iI0ZGRkZGRiIgZmlsbC1ydWxlPSJub256ZXJvIj48L3BhdGg+CiAgICAgICAgICAgICAgICA8cmVjdCBpZD0iX1RyYW5zcGFyZW50X1JlY3RhbmdsZV8iIHg9IjExLjUiIHk9IjEyLjA2Mzc3NzMiIHdpZHRoPSIyNCIgaGVpZ2h0PSIyNCI+PC9yZWN0PgogICAgICAgICAgICA8L2c+CiAgICAgICAgPC9nPgogICAgPC9nPgo8L3N2Zz4=;fontFamily=IBM Plex Sans;fontSize=14;labelPosition=center;verticalLabelPosition=top;align=center;verticalAlign=bottom;spacingTop=-7;fontStyle=1;fontColor=#000000;labelBackgroundColor=none;labelBorderColor=none;imageBackground=none;" parent="rnsb18FZArYNo0Qjp4gU-5" vertex="1">
          <mxGeometry x="80" y="80" width="60" height="60" as="geometry" />
        </mxCell>
        <mxCell id="VXj2yrN-DTrnPqiYM54q-12" style="edgeStyle=orthogonalEdgeStyle;rounded=0;orthogonalLoop=1;jettySize=auto;html=1;strokeWidth=2;" parent="rnsb18FZArYNo0Qjp4gU-5" edge="1">
          <mxGeometry relative="1" as="geometry">
            <mxPoint x="110" y="210" as="sourcePoint" />
            <mxPoint x="110" y="140" as="targetPoint" />
          </mxGeometry>
        </mxCell>
        <mxCell id="rnsb18FZArYNo0Qjp4gU-29" value="On-Call Primary" style="shape=image;verticalLabelPosition=bottom;verticalAlign=top;imageAspect=0;aspect=fixed;image=data:image/svg+xml,PHN2ZyB4bWxuczp4bGluaz0iaHR0cDovL3d3dy53My5vcmcvMTk5OS94bGluayIgeG1sbnM9Imh0dHA6Ly93d3cudzMub3JnLzIwMDAvc3ZnIiB2ZXJzaW9uPSIxLjEiIHZpZXdCb3g9IjAgMCA0OCA0OCIgaGVpZ2h0PSI0OHB4IiB3aWR0aD0iNDhweCI+JiN4YTsgICAgPHRpdGxlPlVzZXIgY29sbGFib3JhdGU8L3RpdGxlPiYjeGE7ICAgIDxnIGZpbGwtcnVsZT0iZXZlbm9kZCIgZmlsbD0ibm9uZSIgc3Ryb2tlLXdpZHRoPSIxIiBzdHJva2U9Im5vbmUiIGlkPSJWMi1JY29ucyI+JiN4YTsgICAgICAgIDxnIHRyYW5zZm9ybT0idHJhbnNsYXRlKC01NDksIC0xOCkiIGlkPSJJQk0vQ2xvdWQvQWN0b3JzIj4mI3hhOyAgICAgICAgICAgIDxnIHRyYW5zZm9ybT0idHJhbnNsYXRlKDU0OSwgMTgpIiBpZD0iVXNlci1jb2xsYWJvcmF0ZSI+JiN4YTsgICAgICAgICAgICAgICAgPHJlY3Qgcng9IjI0IiBoZWlnaHQ9IjQ4IiB3aWR0aD0iNDgiIHk9IjAiIHg9IjAiIGZpbGw9IiMwMDAwMDAiIGlkPSJSZWN0YW5nbGUtQ29weS04Ii8+JiN4YTsgICAgICAgICAgICAgICAgPGcgdHJhbnNmb3JtPSJ0cmFuc2xhdGUoMTIsIDEyKSIgaWQ9ImNvbGxhYm9yYXRlIj4mI3hhOyAgICAgICAgICAgICAgICAgICAgPHBhdGggZmlsbC1ydWxlPSJub256ZXJvIiBmaWxsPSIjRkZGRkZGIiBpZD0iUGF0aCIgZD0iTTQuNSwxNS43NSBMNC41LDE1IEwzLDE1IEwzLDE1Ljc1IEMzLDE4LjY0OTQ5NDkgNS4zNTA1MDUwNiwyMSA4LjI1LDIxIEwxMC41LDIxIEwxMC41LDE5LjUgTDguMjUsMTkuNSBDNi4xNzg5MzIxOSwxOS41IDQuNSwxNy44MjEwNjc4IDQuNSwxNS43NSBaIi8+JiN4YTsgICAgICAgICAgICAgICAgICAgIDxwYXRoIGZpbGwtcnVsZT0ibm9uemVybyIgZmlsbD0iI0ZGRkZGRiIgaWQ9IlBhdGgiIGQ9Ik0xOCw4LjI1IEwxOCw5IEwxOS41LDkgTDE5LjUsOC4yNSBDMTkuNSw1LjM1MDUwNTA2IDE3LjE0OTQ5NDksMyAxNC4yNSwzIEwxMiwzIEwxMiw0LjUgTDE0LjI1LDQuNSBDMTUuMjQ0NTYxOCw0LjUgMTYuMTk4Mzg5LDQuODk1MDg4MTUgMTYuOTAxNjUwNCw1LjU5ODM0OTU3IEMxNy42MDQ5MTE4LDYuMzAxNjEwOTkgMTgsNy4yNTU0MzgxNiAxOCw4LjI1IEwxOCw4LjI1IFoiLz4mI3hhOyAgICAgICAgICAgICAgICAgICAgPHBhdGggZmlsbC1ydWxlPSJub256ZXJvIiBmaWxsPSIjRkZGRkZGIiBpZD0iUGF0aCIgZD0iTTguMjUsOC4yNSBMMy43NSw4LjI1IEMyLjUwNzM1OTMxLDguMjUgMS41LDkuMjU3MzU5MzEgMS41LDEwLjUgTDEuNSwxMiBMMywxMiBMMywxMC41IEMzLDEwLjA4NTc4NjQgMy4zMzU3ODY0NCw5Ljc1IDMuNzUsOS43NSBMOC4yNSw5Ljc1IEM4LjY2NDIxMzU2LDkuNzUgOSwxMC4wODU3ODY0IDksMTAuNSBMOSwxMiBMMTAuNSwxMiBMMTAuNSwxMC41IEMxMC41LDkuMjU3MzU5MzEgOS40OTI2NDA2OSw4LjI1IDguMjUsOC4yNSBMOC4yNSw4LjI1IFoiLz4mI3hhOyAgICAgICAgICAgICAgICAgICAgPHBhdGggZmlsbC1ydWxlPSJub256ZXJvIiBmaWxsPSIjRkZGRkZGIiBpZD0iU2hhcGUiIGQ9Ik02LDcuNSBDNy42NTY4NTQyNSw3LjUgOSw2LjE1Njg1NDI1IDksNC41IEM5LDIuODQzMTQ1NzUgNy42NTY4NTQyNSwxLjUgNiwxLjUgQzQuMzQzMTQ1NzUsMS41IDMsMi44NDMxNDU3NSAzLDQuNSBDMyw2LjE1Njg1NDI1IDQuMzQzMTQ1NzUsNy41IDYsNy41IFogTTYsMyBDNi44Mjg0MjcxMiwzIDcuNSwzLjY3MTU3Mjg4IDcuNSw0LjUgQzcuNSw1LjMyODQyNzEyIDYuODI4NDI3MTIsNiA2LDYgQzUuMTcxNTcyODgsNiA0LjUsNS4zMjg0MjcxMiA0LjUsNC41IEM0LjUsMy42NzE1NzI4OCA1LjE3MTU3Mjg4LDMgNiwzIFoiLz4mI3hhOyAgICAgICAgICAgICAgICAgICAgPHBhdGggZmlsbC1ydWxlPSJub256ZXJvIiBmaWxsPSIjRkZGRkZGIiBpZD0iUGF0aCIgZD0iTTIwLjI1LDE4Ljc1IEwxNS43NSwxOC43NSBDMTQuNTA3MzU5MywxOC43NSAxMy41LDE5Ljc1NzM1OTMgMTMuNSwyMSBMMTMuNSwyMi41IEwxNSwyMi41IEwxNSwyMSBDMTUsMjAuNTg1Nzg2NCAxNS4zMzU3ODY0LDIwLjI1IDE1Ljc1LDIwLjI1IEwyMC4yNSwyMC4yNSBDMjAuNjY0MjEzNiwyMC4yNSAyMSwyMC41ODU3ODY0IDIxLDIxIEwyMSwyMi41IEwyMi41LDIyLjUgTDIyLjUsMjEgQzIyLjUsMTkuNzU3MzU5MyAyMS40OTI2NDA3LDE4Ljc1IDIwLjI1LDE4Ljc1IEwyMC4yNSwxOC43NSBaIi8+JiN4YTsgICAgICAgICAgICAgICAgICAgIDxwYXRoIGZpbGwtcnVsZT0ibm9uemVybyIgZmlsbD0iI0ZGRkZGRiIgaWQ9IlNoYXBlIiBkPSJNMTUsMTUgQzE1LDE2LjY1Njg1NDIgMTYuMzQzMTQ1OCwxOCAxOCwxOCBDMTkuNjU2ODU0MiwxOCAyMSwxNi42NTY4NTQyIDIxLDE1IEMyMSwxMy4zNDMxNDU4IDE5LjY1Njg1NDIsMTIgMTgsMTIgQzE2LjM0MzE0NTgsMTIgMTUsMTMuMzQzMTQ1OCAxNSwxNSBaIE0xOS41LDE1IEMxOS41LDE1LjgyODQyNzEgMTguODI4NDI3MSwxNi41IDE4LDE2LjUgQzE3LjE3MTU3MjksMTYuNSAxNi41LDE1LjgyODQyNzEgMTYuNSwxNSBDMTYuNSwxNC4xNzE1NzI5IDE3LjE3MTU3MjksMTMuNSAxOCwxMy41IEMxOC44Mjg0MjcxLDEzLjUgMTkuNSwxNC4xNzE1NzI5IDE5LjUsMTUgWiIvPiYjeGE7ICAgICAgICAgICAgICAgICAgICA8cmVjdCBoZWlnaHQ9IjI0IiB3aWR0aD0iMjQiIHk9IjAiIHg9IjAiIGlkPSJfVHJhbnNwYXJlbnRfUmVjdGFuZ2xlXyIvPiYjeGE7ICAgICAgICAgICAgICAgIDwvZz4mI3hhOyAgICAgICAgICAgIDwvZz4mI3hhOyAgICAgICAgPC9nPiYjeGE7ICAgIDwvZz4mI3hhOzwvc3ZnPg==;fontSize=14;fontFamily=IBM Plex Sans;spacingTop=-7;labelPosition=center;align=center;" parent="rnsb18FZArYNo0Qjp4gU-5" vertex="1">
          <mxGeometry x="90" y="190" width="40" height="40" as="geometry" />
        </mxCell>
        <mxCell id="rnsb18FZArYNo0Qjp4gU-1" value="" style="rounded=0;whiteSpace=wrap;html=1;fontFamily=IBM Plex Sans;fontSource=fonts%2FIBMPlexSans-Regular.woff;fontSize=14;fillColor=none;spacingBottom=-28;spacingTop=0;labelPosition=-100;verticalLabelPosition=top;align=center;verticalAlign=bottom;spacingLeft=9;spacing=0;expand=0;recursiveResize=0;spacingRight=0;container=1;collapsible=0;strokeColor=#FA4D56;strokeWidth=2;" parent="1" vertex="1">
          <mxGeometry x="20" y="480" width="260" height="280" as="geometry">
            <mxRectangle width="670" as="alternateBounds" />
          </mxGeometry>
        </mxCell>
        <mxCell id="rnsb18FZArYNo0Qjp4gU-2" value="" style="rounded=0;whiteSpace=wrap;html=1;strokeColor=#FA4D56;fillColor=#FA4D56;" parent="rnsb18FZArYNo0Qjp4gU-1" vertex="1">
          <mxGeometry width="4" height="48" as="geometry" />
        </mxCell>
        <mxCell id="rnsb18FZArYNo0Qjp4gU-3" value="ACS Team" style="text;html=1;strokeColor=none;fillColor=none;align=left;verticalAlign=middle;whiteSpace=wrap;rounded=0;fontFamily=IBM Plex Sans;fontSource=fonts%2FIBMPlexSans-Regular.woff;fontSize=14;" parent="rnsb18FZArYNo0Qjp4gU-1" vertex="1">
          <mxGeometry x="50.33" y="8" width="170" height="20" as="geometry" />
        </mxCell>
        <mxCell id="rnsb18FZArYNo0Qjp4gU-4" value="" style="shape=image;image=data:image/svg+xml,PD94bWwgdmVyc2lvbj0iMS4wIiBlbmNvZGluZz0iVVRGLTgiPz4KPHN2ZyB3aWR0aD0iMTZweCIgaGVpZ2h0PSIxOXB4IiB2aWV3Qm94PSIwIDAgMTYgMTkiIHZlcnNpb249IjEuMSIgeG1sbnM9Imh0dHA6Ly93d3cudzMub3JnLzIwMDAvc3ZnIiB4bWxuczp4bGluaz0iaHR0cDovL3d3dy53My5vcmcvMTk5OS94bGluayI+CiAgICA8IS0tIEdlbmVyYXRvcjogU2tldGNoIDUzICg3MjUyMCkgLSBodHRwczovL3NrZXRjaGFwcC5jb20gLS0+CiAgICA8dGl0bGU+RmlsbCAxPC90aXRsZT4KICAgIDxkZXNjPkNyZWF0ZWQgd2l0aCBTa2V0Y2guPC9kZXNjPgogICAgPGcgaWQ9IlBhZ2UtMSIgc3Ryb2tlPSJub25lIiBzdHJva2Utd2lkdGg9IjEiIGZpbGw9Im5vbmUiIGZpbGwtcnVsZT0iZXZlbm9kZCI+CiAgICAgICAgPGcgaWQ9IlJ1bGVzLVNxdWFyZSIgdHJhbnNmb3JtPSJ0cmFuc2xhdGUoLTc4Ljc4NDcyMiwgLTg3LjgxMDQxOCkiIGZpbGw9IiMwMDAwMDAiPgogICAgICAgICAgICA8cGF0aCBkPSJNNzguNzg0NzIyMiw4Ny44MTA0MTc5IEw3OC43ODQ3MjIyLDEwNi40NDU0MTggTDgwLjExNTcyMjIsMTA2LjQ0NTQxOCBMODAuMTE1NzIyMiw5OS43OTA0MTc5IEw5NC43NTc3MjIyLDk5Ljc5MDQxNzkgTDkwLjg5NzcyMjIsOTMuODAwNDE3OSBMOTQuNzU3NzIyMiw4Ny44MTA0MTc5IEw3OC43ODQ3MjIyLDg3LjgxMDQxNzkgWiBNODAuMTE1NzIyMiw4OS4xNDE0MTc5IEw5Mi4zMTU3MjIyLDg5LjE0MTQxNzkgTDg5LjI5OTcyMjIsOTMuODAwNDE3OSBMOTIuMzE1NzIyMiw5OC40NTk0MTc5IEw4MC4xMTU3MjIyLDk4LjQ1OTQxNzkgTDgwLjExNTcyMjIsODkuMTQxNDE3OSBaIiBpZD0iRmlsbC0xIj48L3BhdGg+CiAgICAgICAgPC9nPgogICAgPC9nPgo8L3N2Zz4=;" parent="rnsb18FZArYNo0Qjp4gU-1" vertex="1">
          <mxGeometry x="19" y="7" width="24" height="24" as="geometry" />
        </mxCell>
        <mxCell id="rnsb18FZArYNo0Qjp4gU-23" style="edgeStyle=orthogonalEdgeStyle;rounded=0;orthogonalLoop=1;jettySize=auto;html=1;entryX=0;entryY=0.5;entryDx=0;entryDy=0;exitX=1;exitY=0.5;exitDx=0;exitDy=0;" parent="rnsb18FZArYNo0Qjp4gU-1" source="rnsb18FZArYNo0Qjp4gU-16" target="rnsb18FZArYNo0Qjp4gU-18" edge="1">
          <mxGeometry relative="1" as="geometry">
            <Array as="points">
              <mxPoint x="120" y="186" />
              <mxPoint x="120" y="140" />
            </Array>
          </mxGeometry>
        </mxCell>
        <mxCell id="rnsb18FZArYNo0Qjp4gU-16" value="ACS BNPP" style="shape=image;verticalLabelPosition=bottom;verticalAlign=top;imageAspect=0;aspect=fixed;image=data:image/svg+xml,PHN2ZyB4bWxuczp4bGluaz0iaHR0cDovL3d3dy53My5vcmcvMTk5OS94bGluayIgeG1sbnM9Imh0dHA6Ly93d3cudzMub3JnLzIwMDAvc3ZnIiB2ZXJzaW9uPSIxLjEiIHZpZXdCb3g9IjAgMCA0OCA0OCIgaGVpZ2h0PSI0OHB4IiB3aWR0aD0iNDhweCI+JiN4YTsgICAgPHRpdGxlPlNlcnZpY2UgRGVzazwvdGl0bGU+JiN4YTsgICAgPGcgZmlsbC1ydWxlPSJldmVub2RkIiBmaWxsPSJub25lIiBzdHJva2Utd2lkdGg9IjEiIHN0cm9rZT0ibm9uZSIgaWQ9IlYyLUljb25zIj4mI3hhOyAgICAgICAgPGcgdHJhbnNmb3JtPSJ0cmFuc2xhdGUoLTc1MiwgLTE4KSIgaWQ9IklCTS9DbG91ZC9BY3RvcnMiPiYjeGE7ICAgICAgICAgICAgPGcgdHJhbnNmb3JtPSJ0cmFuc2xhdGUoNzUyLCAxOCkiIGlkPSJTZXJ2aWNlLURlc2siPiYjeGE7ICAgICAgICAgICAgICAgIDxyZWN0IHJ4PSIyNCIgaGVpZ2h0PSI0OCIgd2lkdGg9IjQ4IiB5PSIwIiB4PSIwIiBmaWxsPSIjMDAwMDAwIiBpZD0iUmVjdGFuZ2xlLUNvcHktMjIiLz4mI3hhOyAgICAgICAgICAgICAgICA8ZyB0cmFuc2Zvcm09InRyYW5zbGF0ZSgxMiwgMTIpIiBpZD0idXNlci0tc2VydmljZS1kZXNrIj4mI3hhOyAgICAgICAgICAgICAgICAgICAgPHBhdGggZmlsbC1ydWxlPSJub256ZXJvIiBmaWxsPSIjRkZGRkZGIiBpZD0iUGF0aCIgZD0iTTE5LjAwMDUsOC45NjI1IEwxOS45MDQ2MjUsOC4wNTggQzIwLjE1MzM0OTcsNy44MTIxNzE2NyAyMC41MjM2NjUyLDcuNzM2MTg1MzcgMjAuODQ5MSw3Ljg2NDIgTDIxLjk1MTA3NSw4LjMwNDMgQzIyLjI4MDIxNTEsOC40Mzc5ODk4NyAyMi40OTY3MjIzLDguNzU2NDM1MDMgMjIuNSw5LjExMTY3NSBMMjIuNSwxMS4xMzA2NzUgQzIyLjQ5ODIxNjcsMTEuMzYzMDI2NyAyMi40MDQyMDE1LDExLjU4NTE1MjcgMjIuMjM4NjM4MiwxMS43NDgxODQyIEMyMi4wNzMwNzQ5LDExLjkxMTIxNTggMjEuODQ5NTI2NiwxMi4wMDE3OTcxIDIxLjYxNzE3NSwxMi4wMDAwMjYyIEwyMS41Nzk2NzUsMTEuOTk4ODc1IEMxMy44NTgxMjUsMTEuNTE4MzUgMTIuMyw0Ljk3Njc3NSAxMi4wMDU0NzUsMi40NzMyIEMxMS45NTIwMTM3LDEuOTkyNDIzNTcgMTIuMjk4MzM5NywxLjU1OTMwNjI1IDEyLjc3OTEsMS41MDU3IEMxMi44MTMwMzE5LDEuNTAxNzc2MDMgMTIuODQ3MTY3MiwxLjQ5OTg3MjY3IDEyLjg4MTMyNSwxLjQ5OTk5NDAxIEwxNC44MzA4NzUsMS40OTk5OTQwMSBDMTUuMTg2ODQwOSwxLjUwMTEwMjE3IDE1LjUwNjM5NTgsMS43MTg0NzMxNyAxNS42MzgxNzUsMi4wNDkxNSBMMTYuMDc4MTI1LDMuMTUxNjUgQzE2LjIxMDM4MDUsMy40NzYxNjA1NyAxNi4xMzU2ODUsMy44NDgzMDg1OSAxNS44ODg0NSw0LjA5NjY1IEwxNC45ODQzMjUsNS4wMDEgQzE0Ljk4NDMyNSw1LjAwMSAxNS41MDQ5NzUsOC41MjYxNSAxOS4wMDA1LDguOTYyNSBaIi8+JiN4YTsgICAgICAgICAgICAgICAgICAgIDxwYXRoIGZpbGwtcnVsZT0ibm9uemVybyIgZmlsbD0iI0ZGRkZGRiIgaWQ9IlBhdGgiIGQ9Ik0xMiwyMi41IEwxMC41LDIyLjUgTDEwLjUsMTguNzUgQzEwLjQ5ODYzNiwxNy41MDc5MjQ4IDkuNDkyMDc1MjUsMTYuNTAxMzY0IDguMjUsMTYuNSBMNS4yNSwxNi41IEM0LjAwNzkyNDc1LDE2LjUwMTM2NCAzLjAwMTM2NDAzLDE3LjUwNzkyNDggMywxOC43NSBMMywyMi41IEwxLjUsMjIuNSBMMS41LDE4Ljc1IEMxLjUwMjQzODM1LDE2LjY3OTk0MyAzLjE3OTk0MzAzLDE1LjAwMjQzODQgNS4yNSwxNSBMOC4yNSwxNSBDMTAuMzIwMDU3LDE1LjAwMjQzODQgMTEuOTk3NTYxNiwxNi42Nzk5NDMgMTIsMTguNzUgTDEyLDIyLjUgWiIvPiYjeGE7ICAgICAgICAgICAgICAgICAgICA8cGF0aCBmaWxsLXJ1bGU9Im5vbnplcm8iIGZpbGw9IiNGRkZGRkYiIGlkPSJTaGFwZSIgZD0iTTYuNzUsNy41IEM3Ljk5MjY0MDY5LDcuNSA5LDguNTA3MzU5MzEgOSw5Ljc1IEM5LDEwLjk5MjY0MDcgNy45OTI2NDA2OSwxMiA2Ljc1LDEyIEM1LjUwNzM1OTMxLDEyIDQuNSwxMC45OTI2NDA3IDQuNSw5Ljc1IEM0LjUsOC41MDczNTkzMSA1LjUwNzM1OTMxLDcuNSA2Ljc1LDcuNSBNNi43NSw2IEM0LjY3ODkzMjE5LDYgMyw3LjY3ODkzMjE5IDMsOS43NSBDMywxMS44MjEwNjc4IDQuNjc4OTMyMTksMTMuNSA2Ljc1LDEzLjUgQzguODIxMDY3ODEsMTMuNSAxMC41LDExLjgyMTA2NzggMTAuNSw5Ljc1IEMxMC41LDguNzU1NDM4MTYgMTAuMTA0OTExOCw3LjgwMTYxMDk5IDkuNDAxNjUwNDMsNy4wOTgzNDk1NyBDOC42OTgzODkwMSw2LjM5NTA4ODE1IDcuNzQ0NTYxODQsNiA2Ljc1LDYgWiIvPiYjeGE7ICAgICAgICAgICAgICAgICAgICA8cmVjdCBoZWlnaHQ9IjI0IiB3aWR0aD0iMjQiIHk9IjAiIHg9IjAiIGlkPSJfVHJhbnNwYXJlbnRfUmVjdGFuZ2xlXyIvPiYjeGE7ICAgICAgICAgICAgICAgIDwvZz4mI3hhOyAgICAgICAgICAgIDwvZz4mI3hhOyAgICAgICAgPC9nPiYjeGE7ICAgIDwvZz4mI3hhOzwvc3ZnPg==;fontFamily=IBM Plex Sans;fontSize=14;spacingTop=-7;labelPosition=center;align=center;" parent="rnsb18FZArYNo0Qjp4gU-1" vertex="1">
          <mxGeometry x="50" y="166" width="40" height="40" as="geometry" />
        </mxCell>
        <mxCell id="rnsb18FZArYNo0Qjp4gU-24" style="edgeStyle=orthogonalEdgeStyle;rounded=0;orthogonalLoop=1;jettySize=auto;html=1;entryX=0;entryY=0.5;entryDx=0;entryDy=0;exitX=1;exitY=0.5;exitDx=0;exitDy=0;strokeWidth=4;" parent="rnsb18FZArYNo0Qjp4gU-1" source="rnsb18FZArYNo0Qjp4gU-17" target="rnsb18FZArYNo0Qjp4gU-18" edge="1">
          <mxGeometry relative="1" as="geometry">
            <Array as="points">
              <mxPoint x="120" y="100" />
              <mxPoint x="120" y="140" />
            </Array>
          </mxGeometry>
        </mxCell>
        <mxCell id="rnsb18FZArYNo0Qjp4gU-17" value="ACS" style="shape=image;verticalLabelPosition=bottom;verticalAlign=top;imageAspect=0;aspect=fixed;image=data:image/svg+xml,PHN2ZyB4bWxuczp4bGluaz0iaHR0cDovL3d3dy53My5vcmcvMTk5OS94bGluayIgeG1sbnM9Imh0dHA6Ly93d3cudzMub3JnLzIwMDAvc3ZnIiB2ZXJzaW9uPSIxLjEiIHZpZXdCb3g9IjAgMCA0OCA0OCIgaGVpZ2h0PSI0OHB4IiB3aWR0aD0iNDhweCI+JiN4YTsgICAgPHRpdGxlPlNlcnZpY2UgRGVzazwvdGl0bGU+JiN4YTsgICAgPGcgZmlsbC1ydWxlPSJldmVub2RkIiBmaWxsPSJub25lIiBzdHJva2Utd2lkdGg9IjEiIHN0cm9rZT0ibm9uZSIgaWQ9IlYyLUljb25zIj4mI3hhOyAgICAgICAgPGcgdHJhbnNmb3JtPSJ0cmFuc2xhdGUoLTc1MiwgLTE4KSIgaWQ9IklCTS9DbG91ZC9BY3RvcnMiPiYjeGE7ICAgICAgICAgICAgPGcgdHJhbnNmb3JtPSJ0cmFuc2xhdGUoNzUyLCAxOCkiIGlkPSJTZXJ2aWNlLURlc2siPiYjeGE7ICAgICAgICAgICAgICAgIDxyZWN0IHJ4PSIyNCIgaGVpZ2h0PSI0OCIgd2lkdGg9IjQ4IiB5PSIwIiB4PSIwIiBmaWxsPSIjMDAwMDAwIiBpZD0iUmVjdGFuZ2xlLUNvcHktMjIiLz4mI3hhOyAgICAgICAgICAgICAgICA8ZyB0cmFuc2Zvcm09InRyYW5zbGF0ZSgxMiwgMTIpIiBpZD0idXNlci0tc2VydmljZS1kZXNrIj4mI3hhOyAgICAgICAgICAgICAgICAgICAgPHBhdGggZmlsbC1ydWxlPSJub256ZXJvIiBmaWxsPSIjRkZGRkZGIiBpZD0iUGF0aCIgZD0iTTE5LjAwMDUsOC45NjI1IEwxOS45MDQ2MjUsOC4wNTggQzIwLjE1MzM0OTcsNy44MTIxNzE2NyAyMC41MjM2NjUyLDcuNzM2MTg1MzcgMjAuODQ5MSw3Ljg2NDIgTDIxLjk1MTA3NSw4LjMwNDMgQzIyLjI4MDIxNTEsOC40Mzc5ODk4NyAyMi40OTY3MjIzLDguNzU2NDM1MDMgMjIuNSw5LjExMTY3NSBMMjIuNSwxMS4xMzA2NzUgQzIyLjQ5ODIxNjcsMTEuMzYzMDI2NyAyMi40MDQyMDE1LDExLjU4NTE1MjcgMjIuMjM4NjM4MiwxMS43NDgxODQyIEMyMi4wNzMwNzQ5LDExLjkxMTIxNTggMjEuODQ5NTI2NiwxMi4wMDE3OTcxIDIxLjYxNzE3NSwxMi4wMDAwMjYyIEwyMS41Nzk2NzUsMTEuOTk4ODc1IEMxMy44NTgxMjUsMTEuNTE4MzUgMTIuMyw0Ljk3Njc3NSAxMi4wMDU0NzUsMi40NzMyIEMxMS45NTIwMTM3LDEuOTkyNDIzNTcgMTIuMjk4MzM5NywxLjU1OTMwNjI1IDEyLjc3OTEsMS41MDU3IEMxMi44MTMwMzE5LDEuNTAxNzc2MDMgMTIuODQ3MTY3MiwxLjQ5OTg3MjY3IDEyLjg4MTMyNSwxLjQ5OTk5NDAxIEwxNC44MzA4NzUsMS40OTk5OTQwMSBDMTUuMTg2ODQwOSwxLjUwMTEwMjE3IDE1LjUwNjM5NTgsMS43MTg0NzMxNyAxNS42MzgxNzUsMi4wNDkxNSBMMTYuMDc4MTI1LDMuMTUxNjUgQzE2LjIxMDM4MDUsMy40NzYxNjA1NyAxNi4xMzU2ODUsMy44NDgzMDg1OSAxNS44ODg0NSw0LjA5NjY1IEwxNC45ODQzMjUsNS4wMDEgQzE0Ljk4NDMyNSw1LjAwMSAxNS41MDQ5NzUsOC41MjYxNSAxOS4wMDA1LDguOTYyNSBaIi8+JiN4YTsgICAgICAgICAgICAgICAgICAgIDxwYXRoIGZpbGwtcnVsZT0ibm9uemVybyIgZmlsbD0iI0ZGRkZGRiIgaWQ9IlBhdGgiIGQ9Ik0xMiwyMi41IEwxMC41LDIyLjUgTDEwLjUsMTguNzUgQzEwLjQ5ODYzNiwxNy41MDc5MjQ4IDkuNDkyMDc1MjUsMTYuNTAxMzY0IDguMjUsMTYuNSBMNS4yNSwxNi41IEM0LjAwNzkyNDc1LDE2LjUwMTM2NCAzLjAwMTM2NDAzLDE3LjUwNzkyNDggMywxOC43NSBMMywyMi41IEwxLjUsMjIuNSBMMS41LDE4Ljc1IEMxLjUwMjQzODM1LDE2LjY3OTk0MyAzLjE3OTk0MzAzLDE1LjAwMjQzODQgNS4yNSwxNSBMOC4yNSwxNSBDMTAuMzIwMDU3LDE1LjAwMjQzODQgMTEuOTk3NTYxNiwxNi42Nzk5NDMgMTIsMTguNzUgTDEyLDIyLjUgWiIvPiYjeGE7ICAgICAgICAgICAgICAgICAgICA8cGF0aCBmaWxsLXJ1bGU9Im5vbnplcm8iIGZpbGw9IiNGRkZGRkYiIGlkPSJTaGFwZSIgZD0iTTYuNzUsNy41IEM3Ljk5MjY0MDY5LDcuNSA5LDguNTA3MzU5MzEgOSw5Ljc1IEM5LDEwLjk5MjY0MDcgNy45OTI2NDA2OSwxMiA2Ljc1LDEyIEM1LjUwNzM1OTMxLDEyIDQuNSwxMC45OTI2NDA3IDQuNSw5Ljc1IEM0LjUsOC41MDczNTkzMSA1LjUwNzM1OTMxLDcuNSA2Ljc1LDcuNSBNNi43NSw2IEM0LjY3ODkzMjE5LDYgMyw3LjY3ODkzMjE5IDMsOS43NSBDMywxMS44MjEwNjc4IDQuNjc4OTMyMTksMTMuNSA2Ljc1LDEzLjUgQzguODIxMDY3ODEsMTMuNSAxMC41LDExLjgyMTA2NzggMTAuNSw5Ljc1IEMxMC41LDguNzU1NDM4MTYgMTAuMTA0OTExOCw3LjgwMTYxMDk5IDkuNDAxNjUwNDMsNy4wOTgzNDk1NyBDOC42OTgzODkwMSw2LjM5NTA4ODE1IDcuNzQ0NTYxODQsNiA2Ljc1LDYgWiIvPiYjeGE7ICAgICAgICAgICAgICAgICAgICA8cmVjdCBoZWlnaHQ9IjI0IiB3aWR0aD0iMjQiIHk9IjAiIHg9IjAiIGlkPSJfVHJhbnNwYXJlbnRfUmVjdGFuZ2xlXyIvPiYjeGE7ICAgICAgICAgICAgICAgIDwvZz4mI3hhOyAgICAgICAgICAgIDwvZz4mI3hhOyAgICAgICAgPC9nPiYjeGE7ICAgIDwvZz4mI3hhOzwvc3ZnPg==;fontFamily=IBM Plex Sans;fontSize=14;spacingTop=-7;labelPosition=center;align=center;" parent="rnsb18FZArYNo0Qjp4gU-1" vertex="1">
          <mxGeometry x="50" y="80" width="40" height="40" as="geometry" />
        </mxCell>
        <mxCell id="rnsb18FZArYNo0Qjp4gU-18" value="ACS&#xa;Data Services" style="shape=image;verticalLabelPosition=bottom;verticalAlign=top;imageAspect=0;aspect=fixed;image=data:image/svg+xml,PHN2ZyB4bWxuczp4bGluaz0iaHR0cDovL3d3dy53My5vcmcvMTk5OS94bGluayIgeG1sbnM9Imh0dHA6Ly93d3cudzMub3JnLzIwMDAvc3ZnIiB2ZXJzaW9uPSIxLjEiIHZpZXdCb3g9IjAgMCA0OCA0OCIgaGVpZ2h0PSI0OHB4IiB3aWR0aD0iNDhweCI+JiN4YTsgICAgPHRpdGxlPlNlcnZpY2UgRGVzazwvdGl0bGU+JiN4YTsgICAgPGcgZmlsbC1ydWxlPSJldmVub2RkIiBmaWxsPSJub25lIiBzdHJva2Utd2lkdGg9IjEiIHN0cm9rZT0ibm9uZSIgaWQ9IlYyLUljb25zIj4mI3hhOyAgICAgICAgPGcgdHJhbnNmb3JtPSJ0cmFuc2xhdGUoLTc1MiwgLTE4KSIgaWQ9IklCTS9DbG91ZC9BY3RvcnMiPiYjeGE7ICAgICAgICAgICAgPGcgdHJhbnNmb3JtPSJ0cmFuc2xhdGUoNzUyLCAxOCkiIGlkPSJTZXJ2aWNlLURlc2siPiYjeGE7ICAgICAgICAgICAgICAgIDxyZWN0IHJ4PSIyNCIgaGVpZ2h0PSI0OCIgd2lkdGg9IjQ4IiB5PSIwIiB4PSIwIiBmaWxsPSIjMDAwMDAwIiBpZD0iUmVjdGFuZ2xlLUNvcHktMjIiLz4mI3hhOyAgICAgICAgICAgICAgICA8ZyB0cmFuc2Zvcm09InRyYW5zbGF0ZSgxMiwgMTIpIiBpZD0idXNlci0tc2VydmljZS1kZXNrIj4mI3hhOyAgICAgICAgICAgICAgICAgICAgPHBhdGggZmlsbC1ydWxlPSJub256ZXJvIiBmaWxsPSIjRkZGRkZGIiBpZD0iUGF0aCIgZD0iTTE5LjAwMDUsOC45NjI1IEwxOS45MDQ2MjUsOC4wNTggQzIwLjE1MzM0OTcsNy44MTIxNzE2NyAyMC41MjM2NjUyLDcuNzM2MTg1MzcgMjAuODQ5MSw3Ljg2NDIgTDIxLjk1MTA3NSw4LjMwNDMgQzIyLjI4MDIxNTEsOC40Mzc5ODk4NyAyMi40OTY3MjIzLDguNzU2NDM1MDMgMjIuNSw5LjExMTY3NSBMMjIuNSwxMS4xMzA2NzUgQzIyLjQ5ODIxNjcsMTEuMzYzMDI2NyAyMi40MDQyMDE1LDExLjU4NTE1MjcgMjIuMjM4NjM4MiwxMS43NDgxODQyIEMyMi4wNzMwNzQ5LDExLjkxMTIxNTggMjEuODQ5NTI2NiwxMi4wMDE3OTcxIDIxLjYxNzE3NSwxMi4wMDAwMjYyIEwyMS41Nzk2NzUsMTEuOTk4ODc1IEMxMy44NTgxMjUsMTEuNTE4MzUgMTIuMyw0Ljk3Njc3NSAxMi4wMDU0NzUsMi40NzMyIEMxMS45NTIwMTM3LDEuOTkyNDIzNTcgMTIuMjk4MzM5NywxLjU1OTMwNjI1IDEyLjc3OTEsMS41MDU3IEMxMi44MTMwMzE5LDEuNTAxNzc2MDMgMTIuODQ3MTY3MiwxLjQ5OTg3MjY3IDEyLjg4MTMyNSwxLjQ5OTk5NDAxIEwxNC44MzA4NzUsMS40OTk5OTQwMSBDMTUuMTg2ODQwOSwxLjUwMTEwMjE3IDE1LjUwNjM5NTgsMS43MTg0NzMxNyAxNS42MzgxNzUsMi4wNDkxNSBMMTYuMDc4MTI1LDMuMTUxNjUgQzE2LjIxMDM4MDUsMy40NzYxNjA1NyAxNi4xMzU2ODUsMy44NDgzMDg1OSAxNS44ODg0NSw0LjA5NjY1IEwxNC45ODQzMjUsNS4wMDEgQzE0Ljk4NDMyNSw1LjAwMSAxNS41MDQ5NzUsOC41MjYxNSAxOS4wMDA1LDguOTYyNSBaIi8+JiN4YTsgICAgICAgICAgICAgICAgICAgIDxwYXRoIGZpbGwtcnVsZT0ibm9uemVybyIgZmlsbD0iI0ZGRkZGRiIgaWQ9IlBhdGgiIGQ9Ik0xMiwyMi41IEwxMC41LDIyLjUgTDEwLjUsMTguNzUgQzEwLjQ5ODYzNiwxNy41MDc5MjQ4IDkuNDkyMDc1MjUsMTYuNTAxMzY0IDguMjUsMTYuNSBMNS4yNSwxNi41IEM0LjAwNzkyNDc1LDE2LjUwMTM2NCAzLjAwMTM2NDAzLDE3LjUwNzkyNDggMywxOC43NSBMMywyMi41IEwxLjUsMjIuNSBMMS41LDE4Ljc1IEMxLjUwMjQzODM1LDE2LjY3OTk0MyAzLjE3OTk0MzAzLDE1LjAwMjQzODQgNS4yNSwxNSBMOC4yNSwxNSBDMTAuMzIwMDU3LDE1LjAwMjQzODQgMTEuOTk3NTYxNiwxNi42Nzk5NDMgMTIsMTguNzUgTDEyLDIyLjUgWiIvPiYjeGE7ICAgICAgICAgICAgICAgICAgICA8cGF0aCBmaWxsLXJ1bGU9Im5vbnplcm8iIGZpbGw9IiNGRkZGRkYiIGlkPSJTaGFwZSIgZD0iTTYuNzUsNy41IEM3Ljk5MjY0MDY5LDcuNSA5LDguNTA3MzU5MzEgOSw5Ljc1IEM5LDEwLjk5MjY0MDcgNy45OTI2NDA2OSwxMiA2Ljc1LDEyIEM1LjUwNzM1OTMxLDEyIDQuNSwxMC45OTI2NDA3IDQuNSw5Ljc1IEM0LjUsOC41MDczNTkzMSA1LjUwNzM1OTMxLDcuNSA2Ljc1LDcuNSBNNi43NSw2IEM0LjY3ODkzMjE5LDYgMyw3LjY3ODkzMjE5IDMsOS43NSBDMywxMS44MjEwNjc4IDQuNjc4OTMyMTksMTMuNSA2Ljc1LDEzLjUgQzguODIxMDY3ODEsMTMuNSAxMC41LDExLjgyMTA2NzggMTAuNSw5Ljc1IEMxMC41LDguNzU1NDM4MTYgMTAuMTA0OTExOCw3LjgwMTYxMDk5IDkuNDAxNjUwNDMsNy4wOTgzNDk1NyBDOC42OTgzODkwMSw2LjM5NTA4ODE1IDcuNzQ0NTYxODQsNiA2Ljc1LDYgWiIvPiYjeGE7ICAgICAgICAgICAgICAgICAgICA8cmVjdCBoZWlnaHQ9IjI0IiB3aWR0aD0iMjQiIHk9IjAiIHg9IjAiIGlkPSJfVHJhbnNwYXJlbnRfUmVjdGFuZ2xlXyIvPiYjeGE7ICAgICAgICAgICAgICAgIDwvZz4mI3hhOyAgICAgICAgICAgIDwvZz4mI3hhOyAgICAgICAgPC9nPiYjeGE7ICAgIDwvZz4mI3hhOzwvc3ZnPg==;fontFamily=IBM Plex Sans;fontSize=14;spacingTop=-7;labelPosition=center;align=center;" parent="rnsb18FZArYNo0Qjp4gU-1" vertex="1">
          <mxGeometry x="170" y="120" width="40" height="40" as="geometry" />
        </mxCell>
        <mxCell id="rnsb18FZArYNo0Qjp4gU-9" value="" style="rounded=0;whiteSpace=wrap;html=1;fontFamily=IBM Plex Sans;fontSource=fonts%2FIBMPlexSans-Regular.woff;fontSize=14;spacingBottom=-28;spacingTop=0;labelPosition=-100;verticalLabelPosition=top;align=center;verticalAlign=bottom;spacingLeft=9;spacing=0;expand=0;recursiveResize=0;spacingRight=0;container=1;collapsible=0;strokeColor=#878d96;fillColor=none;" parent="1" vertex="1">
          <mxGeometry x="720" y="480" width="200" height="280" as="geometry">
            <mxRectangle width="670" as="alternateBounds" />
          </mxGeometry>
        </mxCell>
        <mxCell id="rnsb18FZArYNo0Qjp4gU-10" value="" style="rounded=0;whiteSpace=wrap;html=1;strokeColor=#878d96;fillColor=#878d96;fontFamily=IBM Plex Sans;fontSource=fonts%2FIBMPlexSans-Regular.woff;" parent="rnsb18FZArYNo0Qjp4gU-9" vertex="1">
          <mxGeometry width="4" height="48" as="geometry" />
        </mxCell>
        <mxCell id="rnsb18FZArYNo0Qjp4gU-11" value="ICD SME" style="text;html=1;strokeColor=none;fillColor=none;align=left;verticalAlign=middle;whiteSpace=wrap;rounded=0;fontFamily=IBM Plex Sans;fontSource=fonts%2FIBMPlexSans-Regular.woff;fontSize=14;" parent="rnsb18FZArYNo0Qjp4gU-9" vertex="1">
          <mxGeometry x="51" y="8" width="168" height="20" as="geometry" />
        </mxCell>
        <mxCell id="rnsb18FZArYNo0Qjp4gU-12" style="edgeStyle=orthogonalEdgeStyle;rounded=0;orthogonalLoop=1;jettySize=auto;html=1;exitX=0;exitY=0.5;exitDx=0;exitDy=0;entryX=1.009;entryY=0.22;entryDx=0;entryDy=0;entryPerimeter=0;fontFamily=IBM Plex Sans;fontSource=fonts%2FIBMPlexSans-Regular.woff;fontSize=14;startArrow=oval;startFill=1;strokeColor=#198038;" parent="rnsb18FZArYNo0Qjp4gU-9" edge="1">
          <mxGeometry relative="1" as="geometry" />
        </mxCell>
        <mxCell id="rnsb18FZArYNo0Qjp4gU-13" value="" style="shape=image;image=data:image/svg+xml,PD94bWwgdmVyc2lvbj0iMS4wIiBlbmNvZGluZz0iVVRGLTgiPz48c3ZnIGlkPSJpY29ucyIgeG1sbnM9Imh0dHA6Ly93d3cudzMub3JnLzIwMDAvc3ZnIiB2aWV3Qm94PSIwIDAgMzIgMzIiPjxkZWZzPjxzdHlsZT4uY2xzLTF7ZmlsbDpub25lO308L3N0eWxlPjwvZGVmcz48ZyBpZD0iQWN0aW9ucyI+PGcgaWQ9IkNvbnRyb2xzIj48Zz48cGF0aCBkPSJNNi44LDEwYzMuMy01LjEsMTAuMS02LjUsMTUuMi0zLjIsMy4xLDIsNSw1LjUsNSw5LjJoMmMwLTcuMi01LjgtMTMtMTMtMTMtMy45LDAtNy41LDEuNy0xMCw0LjdsLjgsMi4zWiIvPjxwYXRoIGQ9Ik0yNS4yLDIyYy0zLjMsNS4xLTEwLjEsNi41LTE1LjIsMy4yLTMuMS0yLTUtNS41LTUtOS4ySDNjMCw3LjIsNS44LDEzLDEzLDEzLDMuOSwwLDcuNS0xLjcsMTAtNC43bC0uOC0yLjNaIi8+PGcgaWQ9Il9UcmFuc3BhcmVudF9SZWN0YW5nbGVfIj48cmVjdCBjbGFzcz0iY2xzLTEiIHdpZHRoPSIzMiIgaGVpZ2h0PSIzMiIvPjwvZz48Zz48cGF0aCBkPSJNMjMuNSwxNi40YzAtLjIsMC0uMywwLS41czAtLjMsMC0uNWwxLjItMS4xYy41LS40LC42LTEuMSwuMy0xLjZsLTEuNS0yLjZjLS4yLS40LS43LS42LTEuMS0uNi0uMSwwLS4zLDAtLjQsMGwtMS42LC41Yy0uMy0uMi0uNi0uMy0uOC0uNWwtLjMtMS42Yy0uMS0uNi0uNy0xLTEuMy0xaC0zYy0uNiwwLTEuMSwuNC0xLjMsMWwtLjMsMS42Yy0uMywuMS0uNiwuMy0uOSwuNWwtMS42LS41Yy0uMSwwLS4zLDAtLjQsMC0uNSwwLS45LC4yLTEuMSwuNmwtMS41LDIuNmMtLjMsLjUtLjIsMS4yLC4zLDEuNmwxLjIsMS4xYzAsLjIsMCwuMywwLC41czAsLjMsMCwuNWwtMS4yLDEuMWMtLjUsLjQtLjYsMS4xLS4zLDEuNmwxLjUsMi42Yy4yLC40LC43LC42LDEuMSwuNnMuMywwLC40LDBsMS42LS41Yy4zLC4yLC42LC4zLC44LC41bC4zLDEuNmMuMSwuNiwuNywxLDEuMywxaDNjLjYsMCwxLjEtLjQsMS4zLTFsLjMtMS42Yy4zLS4xLC42LS4zLC45LS41bDEuNiwuNWMuMSwwLC4zLDAsLjQsMCwuNSwwLC45LS4yLDEuMS0uNmwxLjUtMi42Yy4zLS41LC4yLTEuMi0uMy0xLjZsLTEuMi0xLjFabS0xLjEsNC43bC0yLjItLjdjLS41LC40LTEuMSwuOC0xLjgsMWwtLjUsMi4zaC0zbC0uNS0yLjNjLS42LS4yLTEuMi0uNi0xLjctMWwtMi4yLC44LTEuNS0yLjYsMS44LTEuNWMtLjEtLjctLjEtMS4zLDAtMmwtMS44LTEuNSwxLjUtMi42LDIuMiwuN2MuNS0uNCwxLjEtLjgsMS44LTFsLjUtMi4zaDNsLjUsMi4zYy42LC4yLDEuMiwuNiwxLjcsMWwyLjItLjgsMS41LDIuNi0xLjgsMS41Yy4xLC43LC4xLDEuMywwLDJsMS44LDEuNS0xLjUsMi42WiIvPjxwYXRoIGQ9Ik0xNi40LDE5LjhjLTIuMiwwLTMuOS0xLjctMy45LTMuOXMxLjctMy45LDMuOS0zLjksMy45LDEuNywzLjksMy45LTEuNywzLjktMy45LDMuOVptMC02LjVjLTEuNSwwLTIuNiwxLjEtMi42LDIuNnMxLjEsMi42LDIuNiwyLjYsMi42LTEuMSwyLjYtMi42LTEuMS0yLjYtMi42LTIuNloiLz48cmVjdCBpZD0iX1RyYW5zcGFyZW50X1JlY3RhbmdsZV8tMiIgY2xhc3M9ImNscy0xIiB4PSI2LjEiIHk9IjUuNiIgd2lkdGg9IjIwLjYiIGhlaWdodD0iMjAuNiIvPjwvZz48cmVjdCBpZD0iX1RyYW5zcGFyZW50X1JlY3RhbmdsZV8tMyIgY2xhc3M9ImNscy0xIiB5PSIwIiB3aWR0aD0iMzIiIGhlaWdodD0iMzIiLz48L2c+PC9nPjwvZz48L3N2Zz4=;fontFamily=IBM Plex Sans;fontSource=fonts%2FIBMPlexSans-Regular.woff;" parent="rnsb18FZArYNo0Qjp4gU-9" vertex="1">
          <mxGeometry x="14" y="3.4999999999995453" width="24" height="24" as="geometry" />
        </mxCell>
        <mxCell id="rnsb18FZArYNo0Qjp4gU-31" value="Disruption&#xa;Engineers" style="shape=image;verticalLabelPosition=middle;verticalAlign=middle;imageAspect=0;aspect=fixed;image=data:image/svg+xml,PHN2ZyB4bWxuczp4bGluaz0iaHR0cDovL3d3dy53My5vcmcvMTk5OS94bGluayIgeG1sbnM9Imh0dHA6Ly93d3cudzMub3JnLzIwMDAvc3ZnIiB2ZXJzaW9uPSIxLjEiIHZpZXdCb3g9IjAgMCA0OCA0OCIgaGVpZ2h0PSI0OHB4IiB3aWR0aD0iNDhweCI+JiN4YTsgICAgPHRpdGxlPlVzZXIgY29sbGFib3JhdGU8L3RpdGxlPiYjeGE7ICAgIDxnIGZpbGwtcnVsZT0iZXZlbm9kZCIgZmlsbD0ibm9uZSIgc3Ryb2tlLXdpZHRoPSIxIiBzdHJva2U9Im5vbmUiIGlkPSJWMi1JY29ucyI+JiN4YTsgICAgICAgIDxnIHRyYW5zZm9ybT0idHJhbnNsYXRlKC01NDksIC0xOCkiIGlkPSJJQk0vQ2xvdWQvQWN0b3JzIj4mI3hhOyAgICAgICAgICAgIDxnIHRyYW5zZm9ybT0idHJhbnNsYXRlKDU0OSwgMTgpIiBpZD0iVXNlci1jb2xsYWJvcmF0ZSI+JiN4YTsgICAgICAgICAgICAgICAgPHJlY3Qgcng9IjI0IiBoZWlnaHQ9IjQ4IiB3aWR0aD0iNDgiIHk9IjAiIHg9IjAiIGZpbGw9IiMwMDAwMDAiIGlkPSJSZWN0YW5nbGUtQ29weS04Ii8+JiN4YTsgICAgICAgICAgICAgICAgPGcgdHJhbnNmb3JtPSJ0cmFuc2xhdGUoMTIsIDEyKSIgaWQ9ImNvbGxhYm9yYXRlIj4mI3hhOyAgICAgICAgICAgICAgICAgICAgPHBhdGggZmlsbC1ydWxlPSJub256ZXJvIiBmaWxsPSIjRkZGRkZGIiBpZD0iUGF0aCIgZD0iTTQuNSwxNS43NSBMNC41LDE1IEwzLDE1IEwzLDE1Ljc1IEMzLDE4LjY0OTQ5NDkgNS4zNTA1MDUwNiwyMSA4LjI1LDIxIEwxMC41LDIxIEwxMC41LDE5LjUgTDguMjUsMTkuNSBDNi4xNzg5MzIxOSwxOS41IDQuNSwxNy44MjEwNjc4IDQuNSwxNS43NSBaIi8+JiN4YTsgICAgICAgICAgICAgICAgICAgIDxwYXRoIGZpbGwtcnVsZT0ibm9uemVybyIgZmlsbD0iI0ZGRkZGRiIgaWQ9IlBhdGgiIGQ9Ik0xOCw4LjI1IEwxOCw5IEwxOS41LDkgTDE5LjUsOC4yNSBDMTkuNSw1LjM1MDUwNTA2IDE3LjE0OTQ5NDksMyAxNC4yNSwzIEwxMiwzIEwxMiw0LjUgTDE0LjI1LDQuNSBDMTUuMjQ0NTYxOCw0LjUgMTYuMTk4Mzg5LDQuODk1MDg4MTUgMTYuOTAxNjUwNCw1LjU5ODM0OTU3IEMxNy42MDQ5MTE4LDYuMzAxNjEwOTkgMTgsNy4yNTU0MzgxNiAxOCw4LjI1IEwxOCw4LjI1IFoiLz4mI3hhOyAgICAgICAgICAgICAgICAgICAgPHBhdGggZmlsbC1ydWxlPSJub256ZXJvIiBmaWxsPSIjRkZGRkZGIiBpZD0iUGF0aCIgZD0iTTguMjUsOC4yNSBMMy43NSw4LjI1IEMyLjUwNzM1OTMxLDguMjUgMS41LDkuMjU3MzU5MzEgMS41LDEwLjUgTDEuNSwxMiBMMywxMiBMMywxMC41IEMzLDEwLjA4NTc4NjQgMy4zMzU3ODY0NCw5Ljc1IDMuNzUsOS43NSBMOC4yNSw5Ljc1IEM4LjY2NDIxMzU2LDkuNzUgOSwxMC4wODU3ODY0IDksMTAuNSBMOSwxMiBMMTAuNSwxMiBMMTAuNSwxMC41IEMxMC41LDkuMjU3MzU5MzEgOS40OTI2NDA2OSw4LjI1IDguMjUsOC4yNSBMOC4yNSw4LjI1IFoiLz4mI3hhOyAgICAgICAgICAgICAgICAgICAgPHBhdGggZmlsbC1ydWxlPSJub256ZXJvIiBmaWxsPSIjRkZGRkZGIiBpZD0iU2hhcGUiIGQ9Ik02LDcuNSBDNy42NTY4NTQyNSw3LjUgOSw2LjE1Njg1NDI1IDksNC41IEM5LDIuODQzMTQ1NzUgNy42NTY4NTQyNSwxLjUgNiwxLjUgQzQuMzQzMTQ1NzUsMS41IDMsMi44NDMxNDU3NSAzLDQuNSBDMyw2LjE1Njg1NDI1IDQuMzQzMTQ1NzUsNy41IDYsNy41IFogTTYsMyBDNi44Mjg0MjcxMiwzIDcuNSwzLjY3MTU3Mjg4IDcuNSw0LjUgQzcuNSw1LjMyODQyNzEyIDYuODI4NDI3MTIsNiA2LDYgQzUuMTcxNTcyODgsNiA0LjUsNS4zMjg0MjcxMiA0LjUsNC41IEM0LjUsMy42NzE1NzI4OCA1LjE3MTU3Mjg4LDMgNiwzIFoiLz4mI3hhOyAgICAgICAgICAgICAgICAgICAgPHBhdGggZmlsbC1ydWxlPSJub256ZXJvIiBmaWxsPSIjRkZGRkZGIiBpZD0iUGF0aCIgZD0iTTIwLjI1LDE4Ljc1IEwxNS43NSwxOC43NSBDMTQuNTA3MzU5MywxOC43NSAxMy41LDE5Ljc1NzM1OTMgMTMuNSwyMSBMMTMuNSwyMi41IEwxNSwyMi41IEwxNSwyMSBDMTUsMjAuNTg1Nzg2NCAxNS4zMzU3ODY0LDIwLjI1IDE1Ljc1LDIwLjI1IEwyMC4yNSwyMC4yNSBDMjAuNjY0MjEzNiwyMC4yNSAyMSwyMC41ODU3ODY0IDIxLDIxIEwyMSwyMi41IEwyMi41LDIyLjUgTDIyLjUsMjEgQzIyLjUsMTkuNzU3MzU5MyAyMS40OTI2NDA3LDE4Ljc1IDIwLjI1LDE4Ljc1IEwyMC4yNSwxOC43NSBaIi8+JiN4YTsgICAgICAgICAgICAgICAgICAgIDxwYXRoIGZpbGwtcnVsZT0ibm9uemVybyIgZmlsbD0iI0ZGRkZGRiIgaWQ9IlNoYXBlIiBkPSJNMTUsMTUgQzE1LDE2LjY1Njg1NDIgMTYuMzQzMTQ1OCwxOCAxOCwxOCBDMTkuNjU2ODU0MiwxOCAyMSwxNi42NTY4NTQyIDIxLDE1IEMyMSwxMy4zNDMxNDU4IDE5LjY1Njg1NDIsMTIgMTgsMTIgQzE2LjM0MzE0NTgsMTIgMTUsMTMuMzQzMTQ1OCAxNSwxNSBaIE0xOS41LDE1IEMxOS41LDE1LjgyODQyNzEgMTguODI4NDI3MSwxNi41IDE4LDE2LjUgQzE3LjE3MTU3MjksMTYuNSAxNi41LDE1LjgyODQyNzEgMTYuNSwxNSBDMTYuNSwxNC4xNzE1NzI5IDE3LjE3MTU3MjksMTMuNSAxOCwxMy41IEMxOC44Mjg0MjcxLDEzLjUgMTkuNSwxNC4xNzE1NzI5IDE5LjUsMTUgWiIvPiYjeGE7ICAgICAgICAgICAgICAgICAgICA8cmVjdCBoZWlnaHQ9IjI0IiB3aWR0aD0iMjQiIHk9IjAiIHg9IjAiIGlkPSJfVHJhbnNwYXJlbnRfUmVjdGFuZ2xlXyIvPiYjeGE7ICAgICAgICAgICAgICAgIDwvZz4mI3hhOyAgICAgICAgICAgIDwvZz4mI3hhOyAgICAgICAgPC9nPiYjeGE7ICAgIDwvZz4mI3hhOzwvc3ZnPg==;fontSize=14;fontFamily=IBM Plex Sans;spacingTop=-7;labelPosition=right;align=left;" parent="rnsb18FZArYNo0Qjp4gU-9" vertex="1">
          <mxGeometry x="50" y="80" width="40" height="40" as="geometry" />
        </mxCell>
        <mxCell id="rnsb18FZArYNo0Qjp4gU-21" style="edgeStyle=orthogonalEdgeStyle;rounded=0;orthogonalLoop=1;jettySize=auto;html=1;entryX=0;entryY=0.5;entryDx=0;entryDy=0;strokeWidth=4;" parent="1" source="rnsb18FZArYNo0Qjp4gU-15" target="rnsb18FZArYNo0Qjp4gU-17" edge="1">
          <mxGeometry relative="1" as="geometry" />
        </mxCell>
        <mxCell id="rnsb18FZArYNo0Qjp4gU-15" value="Customer" style="shape=image;verticalLabelPosition=bottom;verticalAlign=top;imageAspect=0;aspect=fixed;image=data:image/svg+xml,PHN2ZyB4bWxuczp4bGluaz0iaHR0cDovL3d3dy53My5vcmcvMTk5OS94bGluayIgeG1sbnM9Imh0dHA6Ly93d3cudzMub3JnLzIwMDAvc3ZnIiB2ZXJzaW9uPSIxLjEiIHZpZXdCb3g9IjAgMCA0OCA0OCIgaGVpZ2h0PSI0OHB4IiB3aWR0aD0iNDhweCI+JiN4YTsgICAgPHRpdGxlPlVzZXI8L3RpdGxlPiYjeGE7ICAgIDxnIGZpbGwtcnVsZT0iZXZlbm9kZCIgZmlsbD0ibm9uZSIgc3Ryb2tlLXdpZHRoPSIxIiBzdHJva2U9Im5vbmUiIGlkPSJWMi1JY29ucyI+JiN4YTsgICAgICAgIDxnIHRyYW5zZm9ybT0idHJhbnNsYXRlKC04ODcsIC0xOCkiIGlkPSJJQk0vQ2xvdWQvQWN0b3JzIj4mI3hhOyAgICAgICAgICAgIDxnIHRyYW5zZm9ybT0idHJhbnNsYXRlKDg4NywgMTgpIiBpZD0iVXNlciI+JiN4YTsgICAgICAgICAgICAgICAgPHJlY3Qgcng9IjI0IiBoZWlnaHQ9IjQ4IiB3aWR0aD0iNDgiIHk9IjAiIHg9IjAiIGZpbGw9IiMwMDAwMDAiIGlkPSJSZWN0YW5nbGUtQ29weS0xMCIvPiYjeGE7ICAgICAgICAgICAgICAgIDxnIHRyYW5zZm9ybT0idHJhbnNsYXRlKDEyLCAxMikiIGlkPSJ1c2VyIj4mI3hhOyAgICAgICAgICAgICAgICAgICAgPHBhdGggZmlsbC1ydWxlPSJub256ZXJvIiBmaWxsPSIjRkZGRkZGIiBpZD0iU2hhcGUiIGQ9Ik0xMiwzIEMxNC4wNzEwNjc4LDMgMTUuNzUsNC42Nzg5MzIxOSAxNS43NSw2Ljc1IEMxNS43NSw4LjgyMTA2NzgxIDE0LjA3MTA2NzgsMTAuNSAxMiwxMC41IEM5LjkyODkzMjE5LDEwLjUgOC4yNSw4LjgyMTA2NzgxIDguMjUsNi43NSBDOC4yNSw0LjY3ODkzMjE5IDkuOTI4OTMyMTksMyAxMiwzIE0xMiwxLjUgQzkuMTAwNTA1MDYsMS41IDYuNzUsMy44NTA1MDUwNiA2Ljc1LDYuNzUgQzYuNzUsOS42NDk0OTQ5NCA5LjEwMDUwNTA2LDEyIDEyLDEyIEMxNC44OTk0OTQ5LDEyIDE3LjI1LDkuNjQ5NDk0OTQgMTcuMjUsNi43NSBDMTcuMjUsNS4zNTc2MTM0MyAxNi42OTY4NzY2LDQuMDIyMjU1MzkgMTUuNzEyMzEwNiwzLjAzNzY4OTQgQzE0LjcyNzc0NDYsMi4wNTMxMjM0MSAxMy4zOTIzODY2LDEuNSAxMiwxLjUgTDEyLDEuNSBaIi8+JiN4YTsgICAgICAgICAgICAgICAgICAgIDxwYXRoIGZpbGwtcnVsZT0ibm9uemVybyIgZmlsbD0iI0ZGRkZGRiIgaWQ9IlBhdGgiIGQ9Ik0xOS41LDIyLjUgTDE4LDIyLjUgTDE4LDE4Ljc1IEMxOCwxNy43NTU0MzgyIDE3LjYwNDkxMTgsMTYuODAxNjExIDE2LjkwMTY1MDQsMTYuMDk4MzQ5NiBDMTYuMTk4Mzg5LDE1LjM5NTA4ODIgMTUuMjQ0NTYxOCwxNSAxNC4yNSwxNSBMOS43NSwxNSBDNy42Nzg5MzIxOSwxNSA2LDE2LjY3ODkzMjIgNiwxOC43NSBMNiwyMi41IEw0LjUsMjIuNSBMNC41LDE4Ljc1IEM0LjUsMTUuODUwNTA1MSA2Ljg1MDUwNTA2LDEzLjUgOS43NSwxMy41IEwxNC4yNSwxMy41IEMxNy4xNDk0OTQ5LDEzLjUgMTkuNSwxNS44NTA1MDUxIDE5LjUsMTguNzUgTDE5LjUsMjIuNSBaIi8+JiN4YTsgICAgICAgICAgICAgICAgICAgIDxyZWN0IGhlaWdodD0iMjQiIHdpZHRoPSIyNCIgeT0iMCIgeD0iMCIgaWQ9Il9UcmFuc3BhcmVudF9SZWN0YW5nbGVfIi8+JiN4YTsgICAgICAgICAgICAgICAgPC9nPiYjeGE7ICAgICAgICAgICAgPC9nPiYjeGE7ICAgICAgICA8L2c+JiN4YTsgICAgPC9nPiYjeGE7PC9zdmc+;fontFamily=IBM Plex Sans;fontSize=14;spacingTop=-7;labelPosition=center;align=center;" parent="1" vertex="1">
          <mxGeometry x="-70" y="556" width="48" height="48" as="geometry" />
        </mxCell>
        <mxCell id="rnsb18FZArYNo0Qjp4gU-22" style="edgeStyle=orthogonalEdgeStyle;rounded=0;orthogonalLoop=1;jettySize=auto;html=1;entryX=0;entryY=0.5;entryDx=0;entryDy=0;" parent="1" source="rnsb18FZArYNo0Qjp4gU-20" target="rnsb18FZArYNo0Qjp4gU-16" edge="1">
          <mxGeometry relative="1" as="geometry" />
        </mxCell>
        <mxCell id="rnsb18FZArYNo0Qjp4gU-20" value="BNPP" style="shape=image;verticalLabelPosition=bottom;verticalAlign=top;imageAspect=0;aspect=fixed;image=data:image/svg+xml,PHN2ZyB4bWxuczp4bGluaz0iaHR0cDovL3d3dy53My5vcmcvMTk5OS94bGluayIgeG1sbnM9Imh0dHA6Ly93d3cudzMub3JnLzIwMDAvc3ZnIiB2ZXJzaW9uPSIxLjEiIHZpZXdCb3g9IjAgMCA0OCA0OCIgaGVpZ2h0PSI0OHB4IiB3aWR0aD0iNDhweCI+JiN4YTsgICAgPHRpdGxlPlVzZXI8L3RpdGxlPiYjeGE7ICAgIDxnIGZpbGwtcnVsZT0iZXZlbm9kZCIgZmlsbD0ibm9uZSIgc3Ryb2tlLXdpZHRoPSIxIiBzdHJva2U9Im5vbmUiIGlkPSJWMi1JY29ucyI+JiN4YTsgICAgICAgIDxnIHRyYW5zZm9ybT0idHJhbnNsYXRlKC04ODcsIC0xOCkiIGlkPSJJQk0vQ2xvdWQvQWN0b3JzIj4mI3hhOyAgICAgICAgICAgIDxnIHRyYW5zZm9ybT0idHJhbnNsYXRlKDg4NywgMTgpIiBpZD0iVXNlciI+JiN4YTsgICAgICAgICAgICAgICAgPHJlY3Qgcng9IjI0IiBoZWlnaHQ9IjQ4IiB3aWR0aD0iNDgiIHk9IjAiIHg9IjAiIGZpbGw9IiMwMDAwMDAiIGlkPSJSZWN0YW5nbGUtQ29weS0xMCIvPiYjeGE7ICAgICAgICAgICAgICAgIDxnIHRyYW5zZm9ybT0idHJhbnNsYXRlKDEyLCAxMikiIGlkPSJ1c2VyIj4mI3hhOyAgICAgICAgICAgICAgICAgICAgPHBhdGggZmlsbC1ydWxlPSJub256ZXJvIiBmaWxsPSIjRkZGRkZGIiBpZD0iU2hhcGUiIGQ9Ik0xMiwzIEMxNC4wNzEwNjc4LDMgMTUuNzUsNC42Nzg5MzIxOSAxNS43NSw2Ljc1IEMxNS43NSw4LjgyMTA2NzgxIDE0LjA3MTA2NzgsMTAuNSAxMiwxMC41IEM5LjkyODkzMjE5LDEwLjUgOC4yNSw4LjgyMTA2NzgxIDguMjUsNi43NSBDOC4yNSw0LjY3ODkzMjE5IDkuOTI4OTMyMTksMyAxMiwzIE0xMiwxLjUgQzkuMTAwNTA1MDYsMS41IDYuNzUsMy44NTA1MDUwNiA2Ljc1LDYuNzUgQzYuNzUsOS42NDk0OTQ5NCA5LjEwMDUwNTA2LDEyIDEyLDEyIEMxNC44OTk0OTQ5LDEyIDE3LjI1LDkuNjQ5NDk0OTQgMTcuMjUsNi43NSBDMTcuMjUsNS4zNTc2MTM0MyAxNi42OTY4NzY2LDQuMDIyMjU1MzkgMTUuNzEyMzEwNiwzLjAzNzY4OTQgQzE0LjcyNzc0NDYsMi4wNTMxMjM0MSAxMy4zOTIzODY2LDEuNSAxMiwxLjUgTDEyLDEuNSBaIi8+JiN4YTsgICAgICAgICAgICAgICAgICAgIDxwYXRoIGZpbGwtcnVsZT0ibm9uemVybyIgZmlsbD0iI0ZGRkZGRiIgaWQ9IlBhdGgiIGQ9Ik0xOS41LDIyLjUgTDE4LDIyLjUgTDE4LDE4Ljc1IEMxOCwxNy43NTU0MzgyIDE3LjYwNDkxMTgsMTYuODAxNjExIDE2LjkwMTY1MDQsMTYuMDk4MzQ5NiBDMTYuMTk4Mzg5LDE1LjM5NTA4ODIgMTUuMjQ0NTYxOCwxNSAxNC4yNSwxNSBMOS43NSwxNSBDNy42Nzg5MzIxOSwxNSA2LDE2LjY3ODkzMjIgNiwxOC43NSBMNiwyMi41IEw0LjUsMjIuNSBMNC41LDE4Ljc1IEM0LjUsMTUuODUwNTA1MSA2Ljg1MDUwNTA2LDEzLjUgOS43NSwxMy41IEwxNC4yNSwxMy41IEMxNy4xNDk0OTQ5LDEzLjUgMTkuNSwxNS44NTA1MDUxIDE5LjUsMTguNzUgTDE5LjUsMjIuNSBaIi8+JiN4YTsgICAgICAgICAgICAgICAgICAgIDxyZWN0IGhlaWdodD0iMjQiIHdpZHRoPSIyNCIgeT0iMCIgeD0iMCIgaWQ9Il9UcmFuc3BhcmVudF9SZWN0YW5nbGVfIi8+JiN4YTsgICAgICAgICAgICAgICAgPC9nPiYjeGE7ICAgICAgICAgICAgPC9nPiYjeGE7ICAgICAgICA8L2c+JiN4YTsgICAgPC9nPiYjeGE7PC9zdmc+;fontFamily=IBM Plex Sans;fontSize=14;spacingTop=-7;labelPosition=center;align=center;" parent="1" vertex="1">
          <mxGeometry x="-70" y="642" width="48" height="48" as="geometry" />
        </mxCell>
        <mxCell id="rnsb18FZArYNo0Qjp4gU-32" style="edgeStyle=orthogonalEdgeStyle;rounded=0;orthogonalLoop=1;jettySize=auto;html=1;strokeWidth=1;" parent="1" source="rnsb18FZArYNo0Qjp4gU-31" target="rnsb18FZArYNo0Qjp4gU-25" edge="1">
          <mxGeometry relative="1" as="geometry">
            <mxPoint x="560" y="580" as="targetPoint" />
            <Array as="points">
              <mxPoint x="610" y="580" />
              <mxPoint x="610" y="580" />
            </Array>
            <mxPoint x="800" y="630" as="sourcePoint" />
          </mxGeometry>
        </mxCell>
        <mxCell id="rnsb18FZArYNo0Qjp4gU-26" value="Support&#xa;Handbook" style="shape=image;verticalLabelPosition=bottom;verticalAlign=top;imageAspect=0;aspect=fixed;image=data:image/svg+xml,PHN2ZyB4bWxuczp4bGluaz0iaHR0cDovL3d3dy53My5vcmcvMTk5OS94bGluayIgeG1sbnM9Imh0dHA6Ly93d3cudzMub3JnLzIwMDAvc3ZnIiB2ZXJzaW9uPSIxLjEiIHZpZXdCb3g9IjAgMCA0OCA0OCIgaGVpZ2h0PSI0OHB4IiB3aWR0aD0iNDhweCI+JiN4YTsgICAgPHRpdGxlPlRlc3Rpbmc8L3RpdGxlPiYjeGE7ICAgIDxnIGZpbGwtcnVsZT0iZXZlbm9kZCIgZmlsbD0ibm9uZSIgc3Ryb2tlLXdpZHRoPSIxIiBzdHJva2U9Im5vbmUiIGlkPSJWMi1JY29ucyI+JiN4YTsgICAgICAgIDxnIHRyYW5zZm9ybT0idHJhbnNsYXRlKC03ODQsIC00OSkiIGlkPSJJQk0tQ2xvdWQvLURldm9wcyI+JiN4YTsgICAgICAgICAgICA8ZyB0cmFuc2Zvcm09InRyYW5zbGF0ZSg3ODQsIDQ5KSIgaWQ9IlRlc3RpbmciPiYjeGE7ICAgICAgICAgICAgICAgIDxyZWN0IGhlaWdodD0iNDgiIHdpZHRoPSI0OCIgeT0iMCIgeD0iMCIgZmlsbD0iI0VFNTM5NiIgaWQ9IlJlY3RhbmdsZS1Db3B5LTUxIi8+JiN4YTsgICAgICAgICAgICAgICAgPGcgdHJhbnNmb3JtPSJ0cmFuc2xhdGUoMTEsIDEwKSIgaWQ9InRlc3QtdG9vbCI+JiN4YTsgICAgICAgICAgICAgICAgICAgIDxwb2x5Z29uIHBvaW50cz0iMTkuMjcyNzI3MyA3LjY2NjY2NjY3IDE3LjE0NTQ1NDUgNS41IDE2IDYuNjY2NjY2NjcgMTkuMjcyNzI3MyAxMCAyNSA0LjE2NjY2NjY3IDIzLjg1NDU0NTUgMyIgZmlsbC1ydWxlPSJub256ZXJvIiBmaWxsPSIjRkZGRkZGIiBpZD0iUGF0aCIvPiYjeGE7ICAgICAgICAgICAgICAgICAgICA8cG9seWdvbiBwb2ludHM9IjEwIDQuMjI1IDguNzc1IDMgNi41IDUuMjc1IDQuMjI1IDMgMyA0LjIyNSA1LjI3NSA2LjUgMyA4Ljc3NSA0LjIyNSAxMCA2LjUgNy43MjUgOC43NzUgMTAgMTAgOC43NzUgNy43MjUgNi41IiBmaWxsLXJ1bGU9Im5vbnplcm8iIGZpbGw9IiNGRkZGRkYiIGlkPSJQYXRoIi8+JiN4YTsgICAgICAgICAgICAgICAgICAgIDxwb2x5Z29uIHBvaW50cz0iMTAgMTguMjI1IDguNzc1IDE3IDYuNSAxOS4yNzUgNC4yMjUgMTcgMyAxOC4yMjUgNS4yNzUgMjAuNSAzIDIyLjc3NSA0LjIyNSAyNCA2LjUgMjEuNzI1IDguNzc1IDI0IDEwIDIyLjc3NSA3LjcyNSAyMC41IiBmaWxsLXJ1bGU9Im5vbnplcm8iIGZpbGw9IiNGRkZGRkYiIGlkPSJQYXRoIi8+JiN4YTsgICAgICAgICAgICAgICAgICAgIDxwb2x5Z29uIHBvaW50cz0iMTMuODU3MTQyOSAxMi4xNDI4NTcxIDEzLjg1NzE0MjkgMSAxMi4xNDI4NTcxIDEgMTIuMTQyODU3MSAxMi4xNDI4NTcxIDEgMTIuMTQyODU3MSAxIDEzLjg1NzE0MjkgMTIuMTQyODU3MSAxMy44NTcxNDI5IDEyLjE0Mjg1NzEgMjUgMTMuODU3MTQyOSAyNSAxMy44NTcxNDI5IDEzLjg1NzE0MjkgMjUgMTMuODU3MTQyOSAyNSAxMi4xNDI4NTcxIiBmaWxsLXJ1bGU9Im5vbnplcm8iIGZpbGw9IiNGRkZGRkYiIGlkPSJQYXRoIi8+JiN4YTsgICAgICAgICAgICAgICAgICAgIDxyZWN0IGhlaWdodD0iMjciIHdpZHRoPSIyNyIgeT0iMCIgeD0iMCIgaWQ9Il94M0NfVHJhbnNwYXJlbnRfUmVjdGFuZ2xlX3gzRV9fNTg5XyIvPiYjeGE7ICAgICAgICAgICAgICAgIDwvZz4mI3hhOyAgICAgICAgICAgIDwvZz4mI3hhOyAgICAgICAgPC9nPiYjeGE7ICAgIDwvZz4mI3hhOzwvc3ZnPg==;fontFamily=IBM Plex Sans;fontSize=14;spacingTop=-7;labelPosition=center;align=center;" parent="1" vertex="1">
          <mxGeometry x="340" y="600" width="40" height="40" as="geometry" />
        </mxCell>
        <mxCell id="VXj2yrN-DTrnPqiYM54q-3" style="edgeStyle=orthogonalEdgeStyle;rounded=0;orthogonalLoop=1;jettySize=auto;html=1;entryX=0;entryY=0.5;entryDx=0;entryDy=0;strokeWidth=4;" parent="1" source="rnsb18FZArYNo0Qjp4gU-18" target="rnsb18FZArYNo0Qjp4gU-26" edge="1">
          <mxGeometry relative="1" as="geometry" />
        </mxCell>
        <mxCell id="VXj2yrN-DTrnPqiYM54q-4" style="edgeStyle=orthogonalEdgeStyle;rounded=0;orthogonalLoop=1;jettySize=auto;html=1;entryX=0;entryY=0.5;entryDx=0;entryDy=0;strokeWidth=2;" parent="1" source="rnsb18FZArYNo0Qjp4gU-18" target="rnsb18FZArYNo0Qjp4gU-25" edge="1">
          <mxGeometry relative="1" as="geometry">
            <Array as="points">
              <mxPoint x="300" y="620" />
              <mxPoint x="300" y="690" />
              <mxPoint x="420" y="690" />
              <mxPoint x="420" y="590" />
            </Array>
          </mxGeometry>
        </mxCell>
        <mxCell id="VXj2yrN-DTrnPqiYM54q-9" style="edgeStyle=orthogonalEdgeStyle;rounded=0;orthogonalLoop=1;jettySize=auto;html=1;strokeColor=#FA4D56;endArrow=classic;endFill=1;" parent="1" source="rnsb18FZArYNo0Qjp4gU-29" edge="1">
          <mxGeometry relative="1" as="geometry">
            <mxPoint x="570" y="720" as="sourcePoint" />
            <mxPoint x="790" y="600" as="targetPoint" />
            <Array as="points">
              <mxPoint x="790" y="700" />
            </Array>
          </mxGeometry>
        </mxCell>
        <mxCell id="VXj2yrN-DTrnPqiYM54q-15" style="edgeStyle=orthogonalEdgeStyle;rounded=0;orthogonalLoop=1;jettySize=auto;html=1;strokeColor=#FA4D56;" parent="1" source="VXj2yrN-DTrnPqiYM54q-6" target="rnsb18FZArYNo0Qjp4gU-29" edge="1">
          <mxGeometry relative="1" as="geometry">
            <Array as="points">
              <mxPoint x="610" y="680" />
            </Array>
          </mxGeometry>
        </mxCell>
        <mxCell id="VXj2yrN-DTrnPqiYM54q-6" value="Sev-1" style="shape=image;verticalLabelPosition=middle;verticalAlign=middle;imageAspect=0;aspect=fixed;image=data:image/svg+xml,PHN2ZyB4bWxuczp4bGluaz0iaHR0cDovL3d3dy53My5vcmcvMTk5OS94bGluayIgeG1sbnM9Imh0dHA6Ly93d3cudzMub3JnLzIwMDAvc3ZnIiB2ZXJzaW9uPSIxLjEiIHZpZXdCb3g9IjAgMCA0OCA0OCIgaGVpZ2h0PSI0OHB4IiB3aWR0aD0iNDhweCI+JiN4YTsgICAgPHRpdGxlPlNHIFJ1bGVzPC90aXRsZT4mI3hhOyAgICA8ZyBmaWxsLXJ1bGU9ImV2ZW5vZGQiIGZpbGw9Im5vbmUiIHN0cm9rZS13aWR0aD0iMSIgc3Ryb2tlPSJub25lIiBpZD0iVjItSWNvbnMiPiYjeGE7ICAgICAgICA8ZyB0cmFuc2Zvcm09InRyYW5zbGF0ZSgtNzkyLCAtNzcpIiBpZD0iSUJNLS8tQ2xvdWQtLy1TZWN1cml0eSI+JiN4YTsgICAgICAgICAgICA8ZyB0cmFuc2Zvcm09InRyYW5zbGF0ZSg3OTIsIDc3KSIgaWQ9IlNHLVJ1bGVzIj4mI3hhOyAgICAgICAgICAgICAgICA8cmVjdCBoZWlnaHQ9IjQ4IiB3aWR0aD0iNDgiIHk9IjAiIHg9IjAiIGZpbGw9IiNGQTRENTYiIGlkPSJSZWN0YW5nbGUiLz4mI3hhOyAgICAgICAgICAgICAgICA8ZyB0cmFuc2Zvcm09InRyYW5zbGF0ZSgxMiwgMTIpIiBpZD0icnVsZSI+JiN4YTsgICAgICAgICAgICAgICAgICAgIDxyZWN0IGhlaWdodD0iMS41IiB3aWR0aD0iOSIgeT0iMTIiIHg9IjcuNSIgZmlsbC1ydWxlPSJub256ZXJvIiBmaWxsPSIjRkZGRkZGIiBpZD0iUmVjdGFuZ2xlIi8+JiN4YTsgICAgICAgICAgICAgICAgICAgIDxyZWN0IGhlaWdodD0iMS41IiB3aWR0aD0iOSIgeT0iNy41IiB4PSI3LjUiIGZpbGwtcnVsZT0ibm9uemVybyIgZmlsbD0iI0ZGRkZGRiIgaWQ9IlJlY3RhbmdsZSIvPiYjeGE7ICAgICAgICAgICAgICAgICAgICA8cGF0aCBmaWxsLXJ1bGU9Im5vbnplcm8iIGZpbGw9IiNGRkZGRkYiIGlkPSJTaGFwZSIgZD0iTTExLjk5OTk5NTEsMjIuNSBMNy4zNjgxNSwyMC4wMzAzMjUgQzQuNjc3MDg5MjUsMTguNTk4ODI0NyAyLjk5NjY3OTIzLDE1Ljc5ODExMjUgMi45OTk5OTUwOSwxMi43NSBMMi45OTk5OTUwOSwzIEMzLjAwMDkwOTM2LDIuMTcxOTQ5ODQgMy42NzE5NDk4NCwxLjUwMDkwOTM2IDQuNDk5OTk1MDksMS41IEwxOS40OTk5OTUxLDEuNSBDMjAuMzI4MDUwMiwxLjUwMDkwOTM2IDIwLjk5OTA5MDYsMi4xNzE5NDk4NCAyMC45OTk5OTUxLDMgTDIwLjk5OTk5NTEsMTIuNzUgQzIxLjAwMzI2NTIsMTUuNzk4MDU4NyAxOS4zMjI4NjMxLDE4LjU5ODcgMTYuNjMxODUsMjAuMDMwMTc1IEwxMS45OTk5OTUxLDIyLjUgWiBNNC40OTk5OTYxOSwzIEw0LjQ5OTk5NjE5LDEyLjc1IEM0LjQ5NzM1NDc1LDE1LjI0Mzk4NDkgNS44NzIzMzI1OCwxNy41MzU1MDg4IDguMDc0MiwxOC43MDY3MjUgTDExLjk5OTk5NjIsMjAuNzk5OTc1IEwxNS45MjU4LDE4LjcwNjcyNSBDMTguMTI3NjY3NCwxNy41MzU1MDg4IDE5LjUwMjY0NTIsMTUuMjQzOTg0OSAxOS40OTk5OTYyLDEyLjc1IEwxOS40OTk5OTYyLDMgTDQuNDk5OTk2MTksMyBaIi8+JiN4YTsgICAgICAgICAgICAgICAgICAgIDxyZWN0IGhlaWdodD0iMjQiIHdpZHRoPSIyNCIgeT0iMCIgeD0iMCIgaWQ9Il9UcmFuc3BhcmVudF9SZWN0YW5nbGVfIi8+JiN4YTsgICAgICAgICAgICAgICAgPC9nPiYjeGE7ICAgICAgICAgICAgPC9nPiYjeGE7ICAgICAgICA8L2c+JiN4YTsgICAgPC9nPiYjeGE7PC9zdmc+;fontFamily=IBM Plex Sans;fontSize=14;spacingTop=-7;labelPosition=right;align=left;fontColor=#FA4D56;" parent="1" vertex="1">
          <mxGeometry x="600" y="630" width="20" height="20" as="geometry" />
        </mxCell>
        <mxCell id="VXj2yrN-DTrnPqiYM54q-14" style="edgeStyle=orthogonalEdgeStyle;rounded=0;orthogonalLoop=1;jettySize=auto;html=1;strokeColor=#FA4D56;endArrow=none;endFill=0;" parent="1" source="rnsb18FZArYNo0Qjp4gU-25" target="VXj2yrN-DTrnPqiYM54q-6" edge="1">
          <mxGeometry relative="1" as="geometry">
            <Array as="points">
              <mxPoint x="610" y="600" />
            </Array>
          </mxGeometry>
        </mxCell>
        <mxCell id="VXj2yrN-DTrnPqiYM54q-16" value="Sev-1" style="shape=image;verticalLabelPosition=middle;verticalAlign=middle;imageAspect=0;aspect=fixed;image=data:image/svg+xml,PHN2ZyB4bWxuczp4bGluaz0iaHR0cDovL3d3dy53My5vcmcvMTk5OS94bGluayIgeG1sbnM9Imh0dHA6Ly93d3cudzMub3JnLzIwMDAvc3ZnIiB2ZXJzaW9uPSIxLjEiIHZpZXdCb3g9IjAgMCA0OCA0OCIgaGVpZ2h0PSI0OHB4IiB3aWR0aD0iNDhweCI+JiN4YTsgICAgPHRpdGxlPlNHIFJ1bGVzPC90aXRsZT4mI3hhOyAgICA8ZyBmaWxsLXJ1bGU9ImV2ZW5vZGQiIGZpbGw9Im5vbmUiIHN0cm9rZS13aWR0aD0iMSIgc3Ryb2tlPSJub25lIiBpZD0iVjItSWNvbnMiPiYjeGE7ICAgICAgICA8ZyB0cmFuc2Zvcm09InRyYW5zbGF0ZSgtNzkyLCAtNzcpIiBpZD0iSUJNLS8tQ2xvdWQtLy1TZWN1cml0eSI+JiN4YTsgICAgICAgICAgICA8ZyB0cmFuc2Zvcm09InRyYW5zbGF0ZSg3OTIsIDc3KSIgaWQ9IlNHLVJ1bGVzIj4mI3hhOyAgICAgICAgICAgICAgICA8cmVjdCBoZWlnaHQ9IjQ4IiB3aWR0aD0iNDgiIHk9IjAiIHg9IjAiIGZpbGw9IiNGQTRENTYiIGlkPSJSZWN0YW5nbGUiLz4mI3hhOyAgICAgICAgICAgICAgICA8ZyB0cmFuc2Zvcm09InRyYW5zbGF0ZSgxMiwgMTIpIiBpZD0icnVsZSI+JiN4YTsgICAgICAgICAgICAgICAgICAgIDxyZWN0IGhlaWdodD0iMS41IiB3aWR0aD0iOSIgeT0iMTIiIHg9IjcuNSIgZmlsbC1ydWxlPSJub256ZXJvIiBmaWxsPSIjRkZGRkZGIiBpZD0iUmVjdGFuZ2xlIi8+JiN4YTsgICAgICAgICAgICAgICAgICAgIDxyZWN0IGhlaWdodD0iMS41IiB3aWR0aD0iOSIgeT0iNy41IiB4PSI3LjUiIGZpbGwtcnVsZT0ibm9uemVybyIgZmlsbD0iI0ZGRkZGRiIgaWQ9IlJlY3RhbmdsZSIvPiYjeGE7ICAgICAgICAgICAgICAgICAgICA8cGF0aCBmaWxsLXJ1bGU9Im5vbnplcm8iIGZpbGw9IiNGRkZGRkYiIGlkPSJTaGFwZSIgZD0iTTExLjk5OTk5NTEsMjIuNSBMNy4zNjgxNSwyMC4wMzAzMjUgQzQuNjc3MDg5MjUsMTguNTk4ODI0NyAyLjk5NjY3OTIzLDE1Ljc5ODExMjUgMi45OTk5OTUwOSwxMi43NSBMMi45OTk5OTUwOSwzIEMzLjAwMDkwOTM2LDIuMTcxOTQ5ODQgMy42NzE5NDk4NCwxLjUwMDkwOTM2IDQuNDk5OTk1MDksMS41IEwxOS40OTk5OTUxLDEuNSBDMjAuMzI4MDUwMiwxLjUwMDkwOTM2IDIwLjk5OTA5MDYsMi4xNzE5NDk4NCAyMC45OTk5OTUxLDMgTDIwLjk5OTk5NTEsMTIuNzUgQzIxLjAwMzI2NTIsMTUuNzk4MDU4NyAxOS4zMjI4NjMxLDE4LjU5ODcgMTYuNjMxODUsMjAuMDMwMTc1IEwxMS45OTk5OTUxLDIyLjUgWiBNNC40OTk5OTYxOSwzIEw0LjQ5OTk5NjE5LDEyLjc1IEM0LjQ5NzM1NDc1LDE1LjI0Mzk4NDkgNS44NzIzMzI1OCwxNy41MzU1MDg4IDguMDc0MiwxOC43MDY3MjUgTDExLjk5OTk5NjIsMjAuNzk5OTc1IEwxNS45MjU4LDE4LjcwNjcyNSBDMTguMTI3NjY3NCwxNy41MzU1MDg4IDE5LjUwMjY0NTIsMTUuMjQzOTg0OSAxOS40OTk5OTYyLDEyLjc1IEwxOS40OTk5OTYyLDMgTDQuNDk5OTk2MTksMyBaIi8+JiN4YTsgICAgICAgICAgICAgICAgICAgIDxyZWN0IGhlaWdodD0iMjQiIHdpZHRoPSIyNCIgeT0iMCIgeD0iMCIgaWQ9Il9UcmFuc3BhcmVudF9SZWN0YW5nbGVfIi8+JiN4YTsgICAgICAgICAgICAgICAgPC9nPiYjeGE7ICAgICAgICAgICAgPC9nPiYjeGE7ICAgICAgICA8L2c+JiN4YTsgICAgPC9nPiYjeGE7PC9zdmc+;fontFamily=IBM Plex Sans;fontSize=14;spacingTop=-7;labelPosition=right;align=left;fontColor=#FA4D56;" parent="1" vertex="1">
          <mxGeometry x="780" y="630" width="20" height="20" as="geometry" />
        </mxCell>
      </root>
    </mxGraphModel>
  </diagram>
</mxfile>
